<svg width="40" height="40" viewBox="0 0 40 40" fill="none" xmlns="http://www.w3.org/2000/svg">
<g id="logo" clip-path="url(#clip0_46427_16416)">
<g id="Horizon University Indonesia Logo_Default">
<g id="Group">
<g id="Vector">
<path d="M16.0341 0.416551C16.6385 0.291586 17.5554 0.156207 18.066 0.104138C18.5766 0.0624827 19.3268 0.0104138 19.7332 0C20.1396 0 21.0044 0.0416551 21.6609 0.093724C22.3174 0.156207 23.401 0.312413 24.0575 0.447793C24.7139 0.583172 25.7038 0.843516 26.2457 1.03096C26.7875 1.208 27.7253 1.58289 28.3297 1.85365C28.934 2.12441 29.9031 2.6451 30.497 3.00958C31.091 3.38448 31.9766 4.00931 32.4768 4.41544C32.977 4.81117 33.8001 5.56096 34.3107 6.08165C34.8109 6.59192 35.5507 7.43544 35.9362 7.95613C36.3218 8.4664 36.8636 9.26826 37.1345 9.72647C37.4159 10.1847 37.8327 10.9761 38.0827 11.4968C38.3224 12.0175 38.6663 12.8506 38.8538 13.3713C39.031 13.892 39.2915 14.7772 39.4373 15.3499C39.5728 15.9227 39.7603 16.9745 39.8437 17.693C39.9271 18.4116 40 19.4529 40 20.0049C40 20.5672 39.9479 21.4836 39.8854 22.0356C39.8333 22.5979 39.6874 23.5247 39.5728 24.0975C39.4582 24.6702 39.1768 25.7012 38.9476 26.3885C38.7184 27.0758 38.2807 28.1589 37.9785 28.7837C37.6659 29.4085 37.1345 30.3458 36.7907 30.8664C36.4572 31.3871 35.9571 32.0849 35.6861 32.4285C35.4152 32.7722 34.7692 33.4907 34.2378 34.0218C33.7064 34.5633 32.977 35.2402 32.6018 35.5526C32.2267 35.8546 31.5286 36.3649 31.0389 36.6877C30.5491 37.021 29.6113 37.5521 28.9549 37.8957C28.2984 38.229 27.1939 38.6976 26.5062 38.9371C25.8185 39.1662 24.6931 39.4786 24.0054 39.614C23.3177 39.7598 22.1402 39.916 21.4004 39.9681C20.5772 40.0306 19.4936 40.0306 18.6391 39.9681C17.868 39.916 16.8573 39.8015 16.3988 39.7182C15.9404 39.6244 15.1172 39.437 14.5753 39.2912C14.0335 39.1454 13.0749 38.8122 12.4393 38.5518C11.8036 38.3019 10.9388 37.8957 10.5116 37.6666C10.0843 37.4271 9.26117 36.9168 8.68807 36.5315C8.11497 36.1462 7.22928 35.4589 6.70828 35.0111C6.1977 34.5633 5.40579 33.7823 4.95773 33.2616C4.50967 32.7409 3.81154 31.8349 3.40516 31.2309C2.99878 30.6269 2.40484 29.596 2.07141 28.9399C1.73797 28.2838 1.27949 27.18 1.03983 26.4927C0.810592 25.8053 0.518833 24.7952 0.414634 24.2537C0.300015 23.7122 0.143715 22.7958 0.0811957 22.223C0.0082561 21.5982 -0.0230037 20.4527 0.018676 19.3592C0.0499359 18.1408 0.143715 17.1411 0.289595 16.3392C0.414634 15.6832 0.716812 14.5272 0.966891 13.7878C1.21697 13.0485 1.66503 11.9134 1.97763 11.2885C2.2798 10.6637 2.84248 9.6744 3.2176 9.10164C3.60314 8.52889 4.25959 7.6333 4.69723 7.12302C5.12445 6.60234 5.80175 5.88379 6.1977 5.5193C6.59366 5.14441 7.25012 4.58206 7.64608 4.25924C8.04203 3.94682 8.82353 3.40531 9.36537 3.07206C9.9072 2.72841 10.8242 2.22855 11.3973 1.95779C11.9704 1.67662 13.0019 1.27048 13.6896 1.04138C14.3774 0.822689 15.4298 0.541517 16.0341 0.416551Z" fill="white"/>
<path d="M16.0341 1.45793C16.6385 1.33297 17.4825 1.18718 17.9097 1.13511C18.3369 1.08304 19.4623 1.06221 20.4105 1.08304C21.3587 1.10387 22.557 1.19759 23.0676 1.2809C23.5782 1.37462 24.4534 1.56207 24.9953 1.70786C25.5371 1.85366 26.4124 2.14524 26.923 2.35352C27.4335 2.55138 28.2567 2.92628 28.7465 3.18662C29.2362 3.43655 30.0802 3.94683 30.6221 4.31131C31.1639 4.67579 32.0079 5.31103 32.4872 5.738C32.977 6.15455 33.748 6.92517 34.1961 7.43544C34.6546 7.94572 35.3527 8.86213 35.7487 9.46613C36.155 10.0701 36.7073 11.0074 36.9782 11.5489C37.2491 12.0904 37.6138 12.9339 37.791 13.4234C37.9681 13.9128 38.2078 14.6626 38.3328 15.0896C38.4474 15.5165 38.6142 16.2663 38.7079 16.7558C38.7913 17.2452 38.8955 18.4116 38.9267 19.3592C38.9684 20.411 38.9372 21.4836 38.8642 22.1189C38.7913 22.6916 38.6663 23.5143 38.5829 23.9413C38.4995 24.3682 38.239 25.2847 38.0098 25.972C37.7806 26.6593 37.3429 27.7423 37.0407 28.3671C36.7281 28.992 36.155 30.0021 35.7487 30.6061C35.3423 31.2101 34.6441 32.1161 34.1857 32.6368C33.7272 33.1575 33.0603 33.8344 32.6956 34.1572C32.3309 34.4696 31.6328 35.032 31.1431 35.386C30.6533 35.7505 29.8093 36.292 29.2675 36.594C28.7256 36.9064 27.767 37.3646 27.1314 37.625C26.4958 37.8749 25.5163 38.2082 24.9432 38.3644C24.3701 38.5102 23.474 38.6976 22.9634 38.7809C22.4528 38.8642 21.4838 38.9684 20.8273 38.9996C20.15 39.0413 19.0559 39.01 18.3265 38.9475C17.6075 38.8851 16.4822 38.708 15.8257 38.5622C15.1693 38.406 14.2315 38.1457 13.7417 37.9791C13.252 37.8124 12.3663 37.4375 11.762 37.146C11.1576 36.8648 10.199 36.3233 9.62586 35.9484C9.05277 35.5735 8.22959 34.9695 7.80237 34.6154C7.37516 34.2613 6.68744 33.6157 6.29148 33.1991C5.8851 32.7722 5.35369 32.1682 5.10361 31.8558C4.85353 31.5433 4.36379 30.8664 4.01993 30.3458C3.6865 29.8251 3.17592 28.9399 2.905 28.3671C2.62366 27.7944 2.20686 26.7634 1.97763 26.0761C1.74839 25.3888 1.46705 24.3578 1.35243 23.7851C1.23781 23.2123 1.09193 22.1293 1.02941 21.3899C0.94605 20.4631 0.946051 19.63 1.01899 18.7344C1.08151 18.0158 1.22739 16.912 1.35243 16.2872C1.46705 15.6623 1.73797 14.6522 1.93595 14.0482C2.13392 13.4442 2.49862 12.5382 2.73828 12.0175C2.98836 11.4968 3.40516 10.7054 3.6865 10.2472C3.96783 9.78896 4.44715 9.05999 4.77017 8.63303C5.09319 8.20606 5.78091 7.41462 6.29148 6.8731C6.80206 6.342 7.6044 5.5922 8.06287 5.22772C8.52135 4.86324 9.29243 4.31131 9.78216 4.00931C10.2719 3.70731 11.1055 3.23869 11.6369 2.96793C12.1579 2.70759 13.127 2.31186 13.7626 2.08276C14.4086 1.86407 15.4298 1.5829 16.0341 1.45793Z" fill="#980517"/>
<path fill-rule="evenodd" clip-rule="evenodd" d="M18.8475 3.16582C18.8475 4.44672 18.8579 4.47796 19.1393 4.76955C19.3268 4.96741 19.5769 5.09237 19.8895 5.14444C20.2229 5.19651 20.473 5.16527 20.7544 5.05072C20.9628 4.95699 21.2024 4.77996 21.2858 4.64458C21.3796 4.49879 21.4421 3.99893 21.4629 3.19707C21.5046 2.08279 21.4838 1.96824 21.317 1.96824C21.1607 1.96824 21.1399 2.10362 21.1086 3.22831C21.0878 4.34258 21.067 4.49879 20.8794 4.63417C20.7648 4.71748 20.5564 4.8112 20.4105 4.84244C20.2646 4.87368 20.0145 4.84244 19.8582 4.75913C19.6707 4.67582 19.5248 4.48837 19.4519 4.25927C19.3893 4.04058 19.3581 3.47824 19.3893 2.87424L19.4519 1.8641H18.8475V3.16582ZM23.2239 2.59307C23.1785 2.78204 23.0616 3.2019 22.9373 3.64866C22.8904 3.81698 22.8423 3.98997 22.7967 4.15513C22.557 5.00906 22.5153 5.26941 22.6195 5.32148C22.6925 5.36313 22.7654 5.38396 22.7758 5.37354C22.7862 5.36313 22.9009 4.95699 23.0259 4.46755C23.1509 3.9781 23.2864 3.50948 23.3281 3.42617C23.3802 3.31162 23.5156 3.46782 23.8282 3.99893C24.0575 4.40506 24.4013 5.01948 24.5889 5.37354C24.7869 5.73803 24.9849 6.0192 25.037 5.99837C25.0891 5.98796 25.287 5.4152 25.4746 4.72789C25.6726 4.04058 25.8601 3.35327 25.9018 3.18665C25.9643 2.96796 25.9539 2.90548 25.8289 2.90548C25.7247 2.90548 25.5892 3.18665 25.4121 3.85313C25.2662 4.37382 25.1099 4.80079 25.0474 4.80079C24.9849 4.80079 24.6306 4.24886 24.2346 3.57196C23.8491 2.88465 23.4948 2.29107 23.4323 2.22858C23.3698 2.1661 23.2968 2.29107 23.2239 2.59307ZM15.138 2.62431C15.1067 2.68679 15.138 2.86382 15.2109 3.00962C15.2839 3.15541 15.4506 3.58237 15.5861 3.9781L15.8257 4.67582C15.3047 4.45713 14.6483 4.14472 14.0335 3.83231C13.4187 3.51989 12.8873 3.29079 12.856 3.32203C12.8248 3.35327 13.0228 4.04058 13.2937 4.86327C13.6792 6.0192 13.8355 6.34203 13.971 6.34203C14.1064 6.34203 14.1377 6.28996 14.096 6.16499C14.0543 6.06085 13.8876 5.60265 13.7209 5.14444C13.5646 4.68624 13.45 4.30093 13.4812 4.29051C13.5125 4.26968 14.1585 4.56127 14.9088 4.92575C15.6694 5.29023 16.3155 5.57141 16.3467 5.55058C16.378 5.54017 16.1904 4.84244 15.9299 4.00934C15.6486 3.09293 15.4089 2.48893 15.3256 2.48893C15.2526 2.48893 15.1693 2.55141 15.138 2.62431ZM26.8292 5.07155C26.4436 5.85258 26.1519 6.50865 26.1623 6.50865L26.1677 6.51129L26.1792 6.51677C26.2201 6.53627 26.3178 6.5828 26.4228 6.64403C26.5583 6.70651 26.6833 6.75858 26.7146 6.75858C26.7458 6.75858 26.7667 6.71692 26.7667 6.65444C26.7667 6.59196 27.048 5.96713 27.3919 5.24858C27.7357 4.53003 28.0066 3.92603 27.9858 3.9052C27.9754 3.88437 27.8608 3.82189 27.7461 3.75941C27.5273 3.64486 27.4752 3.71775 26.8292 5.07155ZM29.1424 4.47796C29.1007 4.56127 28.9132 5.30065 28.7152 6.13375C28.4443 7.26885 28.3818 7.67499 28.4755 7.77913C28.5693 7.88327 28.9028 7.71665 30.0698 6.99809C31.3098 6.22747 31.5286 6.06085 31.4035 5.95672C31.2785 5.84216 31.0805 5.93589 30.2573 6.49823C29.7155 6.87313 29.2258 7.16471 29.1737 7.1543C29.1216 7.13347 29.2154 6.58154 29.3821 5.92548C29.5488 5.26941 29.6738 4.72789 29.6634 4.72789C29.6475 4.72789 29.5832 4.67346 29.4982 4.60148C29.4717 4.579 29.4431 4.55481 29.4133 4.53003C29.2466 4.37382 29.1945 4.36341 29.1424 4.47796ZM9.7509 5.09237C9.39662 5.32148 9.19864 5.54017 9.04234 5.90465C8.88604 6.25872 8.84436 6.49823 8.89646 6.75858C8.92772 6.95644 9.0736 7.30009 9.21948 7.51878C9.35494 7.72706 9.62586 7.97699 9.803 8.07071C10.0218 8.18526 10.3136 8.22692 10.6158 8.19568C10.8867 8.17485 11.2722 8.03947 11.5223 7.87285C11.7828 7.70623 12.0537 7.41465 12.1787 7.17513C12.2934 6.94602 12.3871 6.61278 12.3871 6.44616C12.3871 6.27954 12.3038 5.95672 12.1892 5.74844C12.085 5.52975 11.8557 5.22775 11.6682 5.07155C11.4077 4.83203 11.2514 4.77996 10.7929 4.77996C10.3657 4.77996 10.1469 4.84244 9.7509 5.09237ZM18.8996 6.25872C18.3265 6.30037 17.5033 6.40451 17.0761 6.49823C16.6489 6.59196 15.9508 6.77941 15.534 6.91478C15.1276 7.06058 14.3461 7.39382 13.8147 7.65416C13.2937 7.91451 12.5018 8.37271 12.0745 8.6643C11.6473 8.9663 10.8971 9.58071 10.4178 10.0389C9.93845 10.4971 9.25074 11.2677 8.88604 11.7572C8.51092 12.2466 7.93783 13.2047 7.59397 13.892C7.25011 14.5793 6.85415 15.5582 6.70827 16.0789C6.56239 16.5996 6.36441 17.4848 6.27063 18.0575C6.15601 18.8177 6.13518 19.4842 6.17686 20.5568C6.20811 21.3587 6.27063 22.1814 6.31231 22.3792C6.35399 22.6292 6.55197 22.9208 6.95835 23.3165C7.35431 23.7122 7.73985 23.983 8.16706 24.1496C8.71932 24.3683 8.95898 24.3995 10.199 24.3995C10.97 24.3891 12.1162 24.3579 12.7518 24.3058C13.5646 24.2537 14.0752 24.2641 14.5232 24.3579C14.8671 24.4308 15.4506 24.6495 15.8257 24.8369C16.2008 25.0243 16.8052 25.4513 17.1699 25.7846C17.5346 26.1178 18.1285 26.7634 18.4828 27.2217C18.8371 27.6799 19.306 28.3463 19.5352 28.7004C19.754 29.0649 19.9624 29.3357 19.9937 29.3148C20.025 29.294 20.2438 28.9608 20.4834 28.565C20.7231 28.1693 21.2233 27.4612 21.5984 26.9925C21.9735 26.5135 22.5778 25.8887 22.9321 25.5971C23.2968 25.2951 23.8074 24.9514 24.0783 24.8161C24.3597 24.6807 24.8911 24.4932 25.2766 24.3995C25.8393 24.2641 26.2248 24.2433 27.1835 24.3162C27.8399 24.3579 28.9965 24.3995 29.7364 24.3995C30.9138 24.3995 31.1743 24.3683 31.7161 24.1496C32.1642 23.9726 32.5289 23.7226 32.977 23.2748L33.6126 22.6396C33.7584 21.3483 33.7897 20.3902 33.7793 19.6717C33.7689 18.8386 33.6855 17.995 33.55 17.3286C33.4354 16.7558 33.2166 15.9331 33.0603 15.5062C32.9144 15.0792 32.581 14.3086 32.3205 13.7879C32.06 13.2672 31.5911 12.4757 31.2577 12.0279C30.9346 11.5697 30.299 10.82 29.8405 10.3513C29.3821 9.88271 28.6318 9.21623 28.1734 8.88299C27.7149 8.53933 26.8709 8.02906 26.2978 7.72706C25.7247 7.43547 24.8077 7.05016 24.2659 6.88354C23.724 6.70651 22.8279 6.49823 22.2861 6.40451C21.7443 6.3212 20.994 6.22747 20.6189 6.21706C20.2438 6.19623 19.4727 6.21706 18.8996 6.25872ZM6.69785 7.76871C6.63098 7.84599 6.56285 7.92453 6.49581 8.0018C6.22862 8.30979 5.97881 8.59773 5.89552 8.70595C5.80174 8.84133 5.74964 9.00795 5.7809 9.08085C5.833 9.16416 6.0414 8.98713 6.40609 8.58099C6.69785 8.23733 6.97919 7.97699 7.00003 8.00823C7.03129 8.03947 7.23969 8.74761 7.45851 9.59113C7.67733 10.4451 7.89615 11.122 7.93783 11.1011C7.97951 11.0907 8.38588 10.6637 8.84436 10.1431C9.50082 9.39326 9.63628 9.17457 9.5425 9.07044C9.4383 8.95588 9.37578 8.97671 9.20906 9.22664C9.09444 9.38285 8.83394 9.69526 8.63596 9.92437L8.27126 10.3201C8.12538 9.86188 7.93783 9.15375 7.76069 8.46644C7.58355 7.76871 7.40641 7.17513 7.37515 7.13347C7.34389 7.10223 7.04171 7.3834 6.69785 7.76871ZM31.2993 8.17485L30.1531 9.2683C31.1222 10.2472 31.3514 10.4034 31.4556 10.3513C31.5807 10.2888 31.5286 10.1951 31.1951 9.8723L30.7783 9.45575L31.7161 8.65388C32.2371 9.17457 32.3934 9.25788 32.4976 9.20582C32.6227 9.14333 32.581 9.06002 32.2892 8.77885L31.9245 8.42478L32.7165 7.64375C33.2791 8.24775 33.4771 8.40395 33.5396 8.37271C33.6021 8.34147 33.3937 8.03947 33.0916 7.69582C32.7998 7.35216 32.5289 7.07099 32.4976 7.07099C32.4664 7.0814 31.935 7.57085 31.2993 8.17485ZM33.7272 10.0181C33.2896 10.3201 32.6956 10.7054 32.4039 10.872C31.8829 11.1844 31.8829 11.1844 32.06 11.4344L32.2371 11.6739C33.1645 11.0491 33.4563 10.9033 33.4875 10.9553C33.5188 10.997 33.3833 11.3927 33.1958 11.8405C32.8728 12.6007 32.8623 12.6632 33.0186 12.9235C33.102 13.0902 33.2062 13.2151 33.2479 13.2151C33.3 13.2151 33.3833 13.0381 33.4563 12.8298C33.5188 12.6111 33.6542 12.2362 33.7689 11.9967L33.9564 11.5489C34.4357 11.7884 34.6754 11.8613 34.79 11.8613C34.9151 11.8613 35.1235 11.7468 35.2589 11.601C35.4048 11.4552 35.5194 11.2365 35.5194 11.1115C35.5194 10.9762 35.3319 10.5596 35.113 10.1743C34.8838 9.77857 34.665 9.46616 34.6233 9.47657C34.5712 9.47657 34.1648 9.7265 33.7272 10.0181ZM4.67638 10.3826C4.61386 10.5388 4.59302 10.6742 4.64512 10.6846C4.6868 10.7054 5.29116 11.0699 5.97888 11.5073L7.22927 12.2987C7.58038 11.8136 7.57329 11.8093 7.07613 11.5052L7.06255 11.4968C6.77079 11.3302 6.17685 10.9345 5.73922 10.6429C5.29116 10.3409 4.90562 10.091 4.87436 10.091C4.83268 10.091 4.74932 10.216 4.67638 10.3826ZM3.69691 12.4133C3.56145 12.5382 3.32179 12.9339 3.17591 13.2984L2.90499 13.9441C3.63439 14.2669 3.86363 14.3606 3.89489 14.3606C3.92615 14.3606 4.3742 14.5481 4.88478 14.7772C5.39536 15.0063 5.84342 15.1833 5.86426 15.1729C5.8851 15.1521 5.9372 15.0271 5.97888 14.8813C6.0414 14.6418 5.99972 14.6002 5.39536 14.3606C5.04108 14.2148 4.7389 14.069 4.71806 14.0274C4.69722 13.9753 4.8952 13.9024 5.16612 13.8504C5.33069 13.8138 5.54187 13.7736 5.73865 13.7362C5.87819 13.7097 6.0106 13.6845 6.11434 13.6629C6.44777 13.6004 6.58323 13.5171 6.68743 13.288C6.74995 13.1318 6.79163 12.986 6.76037 12.9548C6.72911 12.9339 6.35399 13.0068 5.92678 13.111C5.49956 13.2255 5.11402 13.3193 5.06192 13.3193C5.02024 13.3193 4.98898 13.2255 4.98898 13.111C4.98898 12.9964 4.92646 12.7777 4.8431 12.6215C4.77016 12.4549 4.62428 12.2987 4.5305 12.2571C4.43672 12.205 4.27001 12.1737 4.16581 12.1737C4.05119 12.1737 3.84279 12.2779 3.69691 12.4133ZM35.3631 13.1422C35.1443 13.3297 35.0818 13.4963 35.0193 14.0482C34.9567 14.621 34.9151 14.7355 34.6858 14.8397C34.4878 14.9334 34.3732 14.9438 34.1857 14.8501C34.0502 14.7772 33.9147 14.6106 33.8835 14.4648C33.8522 14.319 33.8731 14.0795 33.946 13.9233C34.0502 13.6525 34.0398 13.6317 33.8001 13.6317C33.6022 13.6317 33.5396 13.6837 33.5396 13.8712C33.5396 13.9962 33.5917 14.2773 33.6438 14.496C33.7063 14.7043 33.8835 14.9959 34.0606 15.1417C34.2378 15.2875 34.5087 15.402 34.6858 15.402C34.863 15.402 35.1339 15.2875 35.311 15.1417C35.5924 14.9022 35.6236 14.8188 35.6236 14.2565C35.6236 13.8191 35.6757 13.5796 35.7903 13.4755C35.8737 13.3922 36.0613 13.3193 36.2071 13.3193C36.3634 13.3193 36.4989 13.4026 36.5718 13.5588C36.6343 13.6837 36.6656 13.9441 36.6239 14.1315C36.5718 14.4127 36.5927 14.4648 36.7698 14.4648C36.9261 14.4648 36.9782 14.3919 36.9782 14.2044C36.9782 14.0586 36.9157 13.7879 36.8428 13.6108C36.7698 13.4234 36.5927 13.1839 36.4468 13.0797C36.3113 12.986 36.0717 12.9027 35.9154 12.9027C35.7591 12.9027 35.509 13.0068 35.3631 13.1422ZM2.83205 16.0164C2.64449 16.1414 2.39442 16.4226 2.2798 16.6517C2.15476 16.9016 2.0714 17.2765 2.0714 17.5889C2.0714 17.8805 2.14434 18.2658 2.2277 18.4533C2.32148 18.6511 2.55071 18.8906 2.82163 19.0364C3.10297 19.1926 3.44683 19.2864 3.73859 19.2968C4.01993 19.2968 4.34294 19.2135 4.54092 19.0885C4.72848 18.9844 4.98898 18.7032 5.11402 18.4741C5.27032 18.1929 5.34326 17.8701 5.34326 17.4639C5.35368 17.0162 5.30158 16.8079 5.13486 16.5788C5.00982 16.4226 4.78058 16.1935 4.62428 16.0789C4.44714 15.9435 4.14497 15.8602 3.75943 15.8394C3.30095 15.8186 3.09255 15.8602 2.83205 16.0164ZM37.1762 15.9435C37.0407 15.9956 36.3634 16.1518 35.6757 16.2976C34.988 16.433 34.4149 16.5579 34.4045 16.5788C34.3968 16.5864 34.4117 16.6616 34.4325 16.7668C34.44 16.8049 34.4483 16.8469 34.4566 16.8912C34.5087 17.0786 34.5816 17.1619 34.6858 17.1203C34.7692 17.089 35.3527 16.9537 35.9883 16.8079C36.6239 16.6621 37.2387 16.5475 37.3742 16.5475C37.527 16.5475 37.5999 16.4885 37.593 16.3705C37.593 16.2664 37.5513 16.1101 37.5096 16.0164C37.4471 15.881 37.3742 15.8706 37.1762 15.9435ZM37.6034 18.1408V18.5782C36.8323 18.7032 36.2071 18.7344 35.6966 18.7344H34.79V19.3592L37.7076 19.203C37.7076 19.9945 37.7493 20.0882 37.8952 20.0882C38.041 20.0882 38.0619 20.0361 37.9994 19.7029C37.9577 19.4842 37.916 18.9427 37.916 18.5053C37.916 17.8493 37.8847 17.693 37.7597 17.693C37.6451 17.693 37.6034 17.8076 37.6034 18.1408ZM3.84279 20.5672C3.35305 20.6401 2.70701 20.7026 2.40483 20.7026C1.9672 20.713 1.87342 20.7443 1.9151 20.8692C1.94636 20.9526 1.9672 21.1088 1.9672 21.2129C1.9672 21.3691 2.02972 21.3795 2.59239 21.2858C2.92583 21.2337 3.22801 21.2025 3.25927 21.2337C3.29053 21.265 3.35305 21.619 3.39473 22.0252L3.47809 22.775C2.18602 22.8999 2.1756 22.9103 2.1756 23.2123C2.1756 23.5143 2.18602 23.5248 2.57155 23.4623C2.77995 23.431 3.49893 23.3373 4.15539 23.254C4.81184 23.1811 5.3641 23.0978 5.37452 23.0874C5.38376 23.0689 5.36021 22.9521 5.33295 22.8169L5.32242 22.7646C5.28074 22.6083 5.2078 22.4938 5.14528 22.525C5.08276 22.5459 4.74932 22.6083 4.39504 22.65L3.75943 22.7437C3.64481 21.9419 3.61355 21.5878 3.60313 21.442C3.58229 21.1921 3.62397 21.1712 4.34294 21.0775C5.07234 20.9734 5.09318 20.963 5.09318 20.6922C5.09318 20.4839 5.04108 20.4006 4.91604 20.411C4.81184 20.4215 4.33252 20.4839 3.84279 20.5672ZM36.9678 21.567C36.0404 21.9627 35.9571 21.9731 35.3423 21.8898C34.7171 21.8065 34.6962 21.8065 34.6546 22.0668C34.6233 22.2126 34.6025 22.3376 34.6129 22.348C34.6215 22.3652 34.758 22.3895 34.9343 22.4209L35.0071 22.4339L35.0505 22.4417C35.2798 22.473 35.5611 22.5146 35.6757 22.5355C35.7903 22.5563 36.2697 22.8791 36.749 23.254C37.5096 23.858 37.6034 23.9101 37.6034 23.7122C37.6138 23.5352 37.4263 23.3477 36.9365 23.0041C36.5614 22.7437 36.2905 22.5042 36.3322 22.4626C36.3739 22.4209 36.7386 22.2751 37.1345 22.1397C37.8118 21.9106 37.8639 21.869 37.9264 21.5357C37.9681 21.3379 37.9889 21.1712 37.9785 21.1712C37.9681 21.1608 37.5096 21.3379 36.9678 21.567ZM7.17717 25.243C7.17717 25.3263 7.36473 25.7741 7.59397 26.2323C7.98993 27.0238 8.03161 27.0759 8.51092 27.2217C8.78184 27.305 9.30284 27.4195 9.67796 27.482C10.0531 27.5341 10.6574 27.5861 11.0325 27.5861C11.4077 27.5757 12.012 27.5132 12.3871 27.4299C12.7623 27.3466 13.4396 27.2841 13.898 27.2737C14.3565 27.2737 15.013 27.3466 15.3568 27.4299C15.7007 27.5237 16.3155 27.7632 16.7114 27.961C17.1178 28.1693 17.6596 28.513 17.941 28.7421C18.2119 28.9608 18.4307 29.0857 18.4307 29.0232C18.4307 28.9503 18.0035 28.4297 17.4721 27.8569C16.899 27.2529 16.18 26.6177 15.7215 26.3157C15.2943 26.0345 14.6378 25.7117 14.2627 25.5971C13.8876 25.4826 13.3249 25.3992 13.0123 25.3992C12.6997 25.3992 12.0433 25.493 11.5535 25.6075C11.0638 25.7221 10.3448 25.8158 9.93845 25.8158C9.5425 25.8158 8.93814 25.7429 8.61512 25.6596C8.28168 25.5763 7.82321 25.4097 7.59397 25.2951C7.25011 25.1181 7.18759 25.1077 7.17717 25.243ZM31.8724 25.4721C31.3931 25.6596 30.9242 25.7533 30.2573 25.7846C29.5384 25.8262 29.0903 25.7846 28.3609 25.6179C27.8295 25.493 27.1418 25.3992 26.85 25.3992C26.5478 25.3992 25.9956 25.4826 25.6205 25.5971C25.2454 25.7117 24.6618 25.9928 24.318 26.2115C23.9741 26.4406 23.474 26.8259 23.203 27.0759C22.9425 27.3258 22.432 27.8465 22.0881 28.2422C21.7338 28.6275 21.4525 28.992 21.4525 29.0441C21.4525 29.0961 21.7026 28.9503 22.0048 28.7212C22.2965 28.4817 22.8592 28.1277 23.2551 27.9402C23.6407 27.7423 24.2242 27.5132 24.5576 27.4299C24.8807 27.3466 25.5059 27.2737 25.9331 27.2737C26.3603 27.2737 27.0793 27.3466 27.5273 27.4299C27.965 27.5132 28.6214 27.5861 28.9861 27.5861C29.3404 27.5757 29.9864 27.5132 30.4136 27.4403C30.8409 27.357 31.3723 27.2217 31.5911 27.1279C31.9141 26.9925 32.0392 26.8259 32.3934 26.1282C32.6227 25.67 32.8102 25.2743 32.8102 25.243C32.8102 25.2118 32.7477 25.191 32.6852 25.2014C32.6123 25.2014 32.2476 25.3263 31.8724 25.4721ZM4.4263 26.2219C4.18665 26.3261 4.06161 26.4406 4.09287 26.5239C4.13455 26.6072 4.09287 26.6315 3.96783 26.5968C3.86363 26.5656 3.69691 26.6385 3.57187 26.7739C3.40515 26.9509 3.35305 27.1071 3.38431 27.357C3.41557 27.5653 3.48851 27.6903 3.58229 27.6903C3.70733 27.6903 3.71775 27.7319 3.63439 27.8985C3.56145 28.0443 3.57187 28.1901 3.68649 28.4192C3.82195 28.6796 3.90531 28.7316 4.23875 28.7316C4.45756 28.7316 4.6868 28.6692 4.74932 28.6067C4.8431 28.5025 4.87436 28.5025 4.92646 28.6067C4.95772 28.6692 5.16612 28.7316 5.37452 28.7316C5.70796 28.7316 5.80174 28.6796 5.95804 28.388C6.08308 28.1589 6.11434 28.0235 6.03098 27.9506C5.96846 27.8986 5.92678 27.8152 5.92678 27.7736C5.92678 27.7215 5.99972 27.6903 6.08308 27.6903C6.17686 27.6903 6.24979 27.5653 6.28105 27.357C6.30189 27.1071 6.24979 26.9405 6.09349 26.7843C5.9372 26.6177 5.81216 26.5656 5.66628 26.6177C5.5204 26.6801 5.47872 26.6593 5.53082 26.5656C5.58292 26.5031 5.55166 26.399 5.47872 26.3469C5.4162 26.2948 5.22864 26.2011 5.08276 26.149C4.87436 26.0761 4.70764 26.097 4.4263 26.2219ZM34.7796 26.2115C34.5712 26.3261 34.4462 26.4614 34.467 26.5448C34.4878 26.6593 34.4462 26.6801 34.3107 26.6281C34.1752 26.5656 34.0502 26.6177 33.8939 26.7843C33.7376 26.9405 33.6855 27.1071 33.7063 27.357C33.7376 27.5653 33.8105 27.6903 33.9043 27.6903C33.9877 27.6903 34.0606 27.7215 34.0606 27.7736C34.0606 27.8152 34.0189 27.8986 33.9564 27.9506C33.8731 28.0235 33.9043 28.1589 34.0294 28.388C34.1857 28.6796 34.2794 28.7316 34.6025 28.7316C34.8213 28.7316 35.0193 28.6796 35.0505 28.6275C35.0853 28.5581 35.1443 28.5581 35.2277 28.6275C35.3006 28.69 35.5403 28.7212 35.7591 28.7108C36.0717 28.69 36.1967 28.6171 36.3322 28.388C36.4781 28.1589 36.4885 28.0652 36.3739 27.8985C36.2697 27.7215 36.2801 27.6903 36.4051 27.6903C36.4989 27.6903 36.5718 27.5653 36.6031 27.357C36.6343 27.1071 36.5823 26.9509 36.4155 26.7739C36.2905 26.6385 36.1238 26.5656 36.0092 26.5968C35.8841 26.6281 35.8424 26.6072 35.8841 26.4927C35.9154 26.4094 35.9258 26.3365 35.905 26.3365C35.8945 26.3365 35.7174 26.274 35.509 26.1907C35.1651 26.0449 35.0922 26.0553 34.7796 26.2115ZM11.7619 28.9503C11.3868 29.0128 10.72 29.0232 10.2719 28.992C9.77174 28.9608 9.46956 28.9816 9.46956 29.0441C9.46956 29.0961 9.9072 29.5543 10.4386 30.0438C10.9596 30.5332 11.7724 31.1893 12.2308 31.4913C12.6893 31.7933 13.4187 32.2203 13.8459 32.4285C14.2732 32.6472 15.0963 32.9701 15.6694 33.1679C16.2425 33.3554 17.1595 33.5845 17.7013 33.6782C18.2432 33.7615 19.2747 33.8344 19.9937 33.8344C20.7231 33.8344 21.7338 33.7615 22.2861 33.6678C22.8279 33.5741 23.6511 33.3866 24.1096 33.2408C24.5681 33.095 25.3183 32.8034 25.7768 32.5952C26.2352 32.3765 26.9646 31.9807 27.3919 31.71C27.8191 31.4288 28.5485 30.8873 29.007 30.5124C29.4654 30.1271 29.9864 29.6272 30.1636 29.3981L30.497 28.992C28.8611 28.992 27.8399 28.9503 27.1835 28.8983C26.1936 28.8254 25.8289 28.8358 25.0995 28.992C24.6097 29.0857 23.8595 29.3044 23.4323 29.4814C23.0051 29.6585 22.3903 29.9605 22.0777 30.1583C21.7651 30.3666 21.2233 30.7415 20.8794 30.9914C20.5355 31.2518 20.1396 31.4705 19.9937 31.4705C19.8478 31.4809 19.6186 31.3976 19.4727 31.3039C19.3268 31.2101 18.8892 30.8977 18.4828 30.6061C18.0764 30.3145 17.4096 29.9188 16.9928 29.721C16.5864 29.5231 15.8987 29.2628 15.4923 29.1378C14.9921 29.0024 14.3357 28.9087 13.5854 28.8879C12.9498 28.867 12.1371 28.8983 11.7619 28.9503ZM9.57376 30.6582C9.57376 30.7103 9.10486 31.2518 8.54218 31.8558L7.50019 32.9492L7.95867 33.397C9.61544 31.5538 10.0843 31.0123 10.0739 30.9914C10.061 30.985 10.0123 30.9428 9.94504 30.8844C9.90344 30.8483 9.85474 30.8061 9.803 30.7623C9.67796 30.6478 9.57376 30.6061 9.57376 30.6582ZM29.7364 31.1268C29.7051 31.1789 29.9031 31.9599 30.1844 32.8451C30.4553 33.7303 30.695 34.4592 30.7262 34.4592C30.7575 34.4592 30.8409 34.4176 30.9034 34.3759C31.0076 34.3239 30.9867 34.1781 30.8409 33.7823L30.6429 33.2616L31.5077 32.5014L32.5497 33.0117L32.9665 32.5639C30.5804 31.3663 29.8718 31.0227 29.8405 31.0227C29.8197 31.0227 29.778 31.0748 29.7364 31.1268ZM10.0322 32.5639C9.70922 33.0638 9.31326 33.6365 9.14654 33.8344C8.97982 34.0323 8.88604 34.2405 8.92772 34.2822C8.9694 34.3238 9.04234 34.3655 9.10486 34.3655C9.16738 34.3655 9.46956 33.9594 9.78216 33.4699C10.0948 32.9805 10.3657 32.5952 10.3761 32.6056C10.3865 32.6264 10.522 33.22 10.6574 33.9385C10.8033 34.6571 10.9492 35.3444 10.9804 35.4798C11.0117 35.6047 11.0638 35.7089 11.1055 35.7089C11.1576 35.7193 11.4702 35.3027 11.8036 34.8029C12.1371 34.303 12.5434 33.7198 12.7102 33.522C12.8786 33.3038 12.9462 33.2162 12.9286 33.152C12.9168 33.109 12.8667 33.0765 12.7831 33.0221C12.6685 32.9492 12.5851 32.9284 12.5851 32.9701C12.5955 33.0221 12.3663 33.4283 12.0745 33.8865C11.7619 34.3655 11.5014 34.6779 11.4598 34.6154C11.4181 34.5634 11.3035 34.1364 11.2097 33.6782C11.1159 33.22 11.0013 32.5743 10.9492 32.2515C10.8971 31.9183 10.8033 31.6475 10.7408 31.6475C10.6679 31.6475 10.3553 32.0536 10.0322 32.5639ZM28.0692 32.3973C27.9545 32.4598 27.8503 32.5327 27.8399 32.5431C27.8191 32.5639 28.1004 33.043 28.4651 33.6053C28.8298 34.1572 29.2153 34.7612 29.33 34.9487C29.5175 35.2715 29.5384 35.2715 29.7676 35.1049L30.0073 34.9278C28.7881 32.9909 28.4339 32.3973 28.4339 32.3556C28.4339 32.3036 28.4026 32.2723 28.3609 32.2723C28.3088 32.2723 28.1838 32.3348 28.0692 32.3973ZM26.2665 33.4179C26.0894 33.5324 25.8914 33.7198 25.8289 33.8344C25.7663 33.949 25.7247 34.1468 25.7247 34.2822C25.7143 34.4072 25.808 34.6363 25.9331 34.8029C26.1206 35.0528 26.204 35.0841 26.7979 35.0841C27.1626 35.0841 27.5169 35.1361 27.6107 35.209C27.7149 35.2819 27.8191 35.4485 27.8503 35.5839C27.892 35.7505 27.8399 35.8859 27.6524 36.0734C27.4856 36.24 27.3085 36.3233 27.1626 36.2921C27.0272 36.2712 26.8396 36.2192 26.7354 36.1671C26.5791 36.0838 26.5583 36.115 26.6104 36.3129C26.652 36.5003 26.7354 36.542 27.0272 36.542C27.2251 36.542 27.5377 36.4691 27.7045 36.3858C27.8712 36.3025 28.09 36.0838 28.1734 35.9172C28.2567 35.7505 28.3297 35.4902 28.3297 35.3444C28.3297 35.1986 28.215 34.9591 28.0796 34.8029C27.8503 34.5425 27.7566 34.5113 27.1522 34.5113C26.7076 34.5113 26.4263 34.4592 26.3082 34.3551C26.204 34.2614 26.1415 34.0947 26.1623 33.9385C26.1831 33.7719 26.2978 33.6261 26.4853 33.5532C26.6833 33.4595 26.8292 33.4491 26.9751 33.522C27.1522 33.6053 27.1835 33.5949 27.1835 33.4179C27.1835 33.2616 27.1105 33.2096 26.9021 33.2096C26.7354 33.2096 26.4541 33.3033 26.2769 33.4179H26.2665ZM12.7102 34.7716C12.4184 35.5735 12.1787 36.24 12.1892 36.2608C12.21 36.2816 12.533 36.417 12.9186 36.5732C13.3145 36.7294 13.8251 36.8544 14.0648 36.8544C14.3253 36.8544 14.6483 36.7711 14.8462 36.6461C15.0338 36.5316 15.2839 36.2816 15.3985 36.1046C15.5131 35.9172 15.6277 35.5943 15.659 35.3965C15.7007 35.1778 15.6694 34.8862 15.5861 34.6675C15.5027 34.4696 15.2943 34.1989 15.1276 34.0739C14.9609 33.949 14.5128 33.7303 14.1169 33.5845C13.7313 33.4387 13.3875 33.3137 13.3354 33.3137C13.2937 33.3137 13.0123 33.9698 12.7102 34.7716ZM24.0471 34.1676C23.8348 34.2384 23.6426 34.2991 23.5119 34.3403C23.4116 34.372 23.3476 34.3922 23.3385 34.3967C23.3281 34.3967 23.3698 34.553 23.4323 34.7196C23.4948 34.8862 23.6928 35.5631 23.8699 36.2087C24.0575 36.8544 24.2242 37.3959 24.2555 37.3959C24.2832 37.4051 24.5729 37.3325 24.9285 37.2434L25.0682 37.2085C25.4954 37.0939 25.8185 36.9585 25.8185 36.8856C25.8185 36.8023 25.7247 36.7711 25.5788 36.7919C25.4538 36.8127 25.2037 36.8648 25.037 36.9065C24.7348 36.9794 24.7244 36.9689 24.5576 36.4274C24.4639 36.115 24.4013 35.8338 24.4222 35.7922C24.443 35.7401 24.6514 35.6881 24.8807 35.6568C25.1585 35.6221 25.2975 35.5527 25.2975 35.4485C25.2975 35.3444 25.2245 35.3132 25.0578 35.3444C24.9328 35.3756 24.7139 35.4277 24.5681 35.459C24.3388 35.511 24.2971 35.4694 24.1825 35.1153C24.1096 34.8966 24.0471 34.6571 24.0471 34.5946C24.0471 34.5217 24.2555 34.4072 24.516 34.3551C24.8181 34.2926 24.9849 34.1989 24.9849 34.0947C24.9849 34.0114 24.9223 33.9385 24.8494 33.949C24.7869 33.9594 24.4222 34.0531 24.0471 34.1676ZM17.1178 34.7196C16.8886 34.8029 16.5968 34.9903 16.4613 35.1361C16.3363 35.2819 16.18 35.5943 16.1175 35.8443C16.055 36.0838 16.0341 36.4378 16.0654 36.6253C16.0966 36.8023 16.2529 37.1043 16.4092 37.2918C16.576 37.4688 16.8573 37.6771 17.0344 37.7604C17.222 37.8333 17.6284 37.8958 17.9201 37.8958C18.3057 37.8854 18.5766 37.8229 18.8267 37.6563C19.0246 37.5313 19.2747 37.2397 19.3789 37.0106C19.4831 36.7815 19.5665 36.4066 19.5665 36.1775C19.5665 35.9067 19.4831 35.636 19.3372 35.4069C19.2018 35.209 18.9517 34.9591 18.785 34.8654C18.6183 34.7716 18.264 34.6675 18.0035 34.6258C17.7117 34.5946 17.3783 34.6258 17.1178 34.7196ZM22.6091 34.6467C22.5362 34.6987 22.5466 35.0216 22.6299 35.6776C22.6925 36.1983 22.7133 36.667 22.6716 36.719C22.6299 36.7607 22.0777 36.3649 21.4421 35.8443C20.8169 35.3132 20.2542 34.8758 20.1917 34.8758C20.1292 34.8758 20.1083 35.0216 20.1396 35.2194C20.1604 35.3965 20.2125 35.9484 20.2438 36.4378C20.275 36.9273 20.3271 37.4792 20.348 37.6667C20.3897 37.8958 20.4522 37.9999 20.5772 37.9999C20.7335 37.9999 20.7544 37.9478 20.6918 37.6146C20.6502 37.3959 20.5876 36.896 20.546 36.4899L20.4626 35.761C22.0673 37.0731 22.6091 37.5313 22.6925 37.625C22.7758 37.7187 22.9217 37.8021 23.0051 37.8021C23.1301 37.7916 23.1509 37.7083 23.078 37.3022C23.0363 37.021 22.9842 36.3233 22.9634 35.7297C22.9425 35.1465 22.88 34.6363 22.8175 34.6154C22.7654 34.5946 22.6716 34.605 22.6091 34.6467ZM2.83205 16.5788C2.70702 16.6517 2.52988 16.8287 2.44652 16.9641C2.35274 17.1099 2.2798 17.3806 2.2798 17.5681C2.2798 17.8076 2.37358 17.9846 2.62366 18.2137C2.82163 18.4012 3.14465 18.5678 3.42599 18.6303C3.71775 18.6928 4.04077 18.6928 4.29085 18.6303C4.50967 18.5678 4.77016 18.4012 4.88478 18.245C5.00982 18.0784 5.1036 17.7972 5.09318 17.6201C5.09318 17.4327 5.0515 17.1828 4.98898 17.0682C4.93688 16.9537 4.6868 16.7662 4.44715 16.6517C4.19707 16.5371 3.79069 16.4434 3.53019 16.4434C3.26969 16.4434 2.95709 16.5059 2.83205 16.5788ZM9.57376 5.58182C9.6988 5.4152 9.89678 5.23817 10.0218 5.19651C10.1469 5.14444 10.3448 5.10279 10.4595 5.09237C10.5741 5.09237 10.8242 5.19651 11.0221 5.32148C11.2201 5.45686 11.491 5.76927 11.6265 6.02961C11.7619 6.28996 11.8661 6.64403 11.8766 6.81065C11.8766 6.97727 11.7619 7.25844 11.6369 7.42506C11.5014 7.59168 11.2826 7.76871 11.1368 7.82078C10.9805 7.87285 10.7512 7.87285 10.5637 7.81037C10.3865 7.74789 10.126 7.57085 9.96972 7.41465C9.81342 7.24802 9.61544 6.94603 9.53208 6.72734C9.4383 6.51906 9.36536 6.23789 9.36536 6.10251C9.35494 5.97754 9.45914 5.73803 9.57376 5.58182ZM3.58229 13.0589C3.49893 13.2047 3.44683 13.3817 3.46767 13.4546C3.47809 13.5171 3.72817 13.6629 4.00951 13.7775C4.42631 13.9337 4.53051 13.9441 4.59303 13.8295C4.63471 13.7462 4.67638 13.5692 4.67638 13.4234C4.67638 13.2776 4.60345 13.0797 4.49925 12.986C4.39505 12.8819 4.18665 12.7986 4.03035 12.7986C3.83237 12.7986 3.69691 12.8819 3.58229 13.0589ZM33.7272 10.7991C33.7168 10.7471 33.9356 10.5804 34.2169 10.4138C34.4878 10.2472 34.7483 10.1222 34.7796 10.1326C34.8109 10.1535 34.9151 10.3201 34.9984 10.4971C35.1443 10.8095 35.1443 10.8304 34.8942 11.0803C34.7379 11.2365 34.5191 11.3406 34.342 11.3406C34.1648 11.3406 33.9981 11.2572 33.9043 11.1114C33.8209 10.9761 33.7376 10.8408 33.7272 10.7991ZM30.2053 31.9912C30.2053 32.0016 30.2782 32.2515 30.372 32.5327L30.5387 33.0534C31.0076 32.5743 31.143 32.4077 31.143 32.3765C31.143 32.3452 30.9867 32.2411 30.7783 32.1474C30.5804 32.0432 30.372 31.9599 30.3095 31.9599C30.2574 31.9599 30.2053 31.9703 30.2053 31.9912ZM16.7531 35.9484C16.8156 35.6985 16.9928 35.3548 17.1386 35.1882C17.347 34.9383 17.4929 34.8758 17.8159 34.8758C18.0348 34.8758 18.3161 34.9278 18.4307 34.9799C18.5453 35.032 18.7121 35.2298 18.7954 35.3965C18.8788 35.5631 18.9517 35.8651 18.9517 36.0525C18.9517 36.2296 18.8892 36.5732 18.8162 36.7919C18.7537 37.0106 18.5662 37.3022 18.4099 37.4376C18.2223 37.5938 17.9827 37.6875 17.7534 37.6875C17.4929 37.6875 17.2949 37.6042 17.0865 37.4063C16.9198 37.2397 16.7531 36.9481 16.7114 36.7503C16.6697 36.5524 16.6906 36.1879 16.7531 35.9484ZM13.5854 34.1676C13.5488 34.2654 13.493 34.4109 13.4287 34.5786C13.3285 34.8398 13.2077 35.155 13.1061 35.4277L12.8039 36.2296C13.4396 36.5003 13.7209 36.542 13.9501 36.5003C14.1481 36.4691 14.4086 36.3545 14.5128 36.2504C14.617 36.1567 14.7942 35.8859 14.8984 35.6568C15.0026 35.4277 15.0963 35.1361 15.0963 35.0112C15.0963 34.8758 15.0234 34.6258 14.94 34.4592C14.8567 34.2926 14.6587 34.0843 14.5024 34.001C14.3357 33.9281 14.1169 33.8344 13.9918 33.7927C13.8043 33.7303 13.7417 33.7927 13.5854 34.1676ZM17.7847 8.84133C17.6805 8.69554 17.5971 8.54975 17.5971 8.49768C17.5971 8.45602 17.7534 8.49768 17.941 8.60182C18.1285 8.69554 18.4724 8.98713 18.7225 9.24747C18.9725 9.51823 19.2643 9.96602 19.3789 10.2784C19.5144 10.6429 19.5769 11.0803 19.5769 11.6322C19.5769 12.1529 19.4623 12.8923 19.2643 13.7358C19.0976 14.4544 18.91 15.3604 18.8579 15.7665C18.7954 16.1726 18.7433 16.7558 18.7433 17.0682C18.7433 17.3806 18.7954 17.8284 18.8579 18.0575C18.9205 18.2866 19.0768 18.5886 19.1914 18.724C19.3164 18.8594 19.6082 19.0573 19.8374 19.1614C20.0666 19.2655 20.4626 19.3592 20.7231 19.3592C21.0149 19.3592 21.317 19.2759 21.5254 19.151C21.7547 19.0156 21.9631 18.7344 22.1506 18.3491C22.3903 17.818 22.4216 17.6618 22.3695 17.0161C22.3382 16.5579 22.1506 15.8394 21.8901 15.0896C21.6609 14.4335 21.4212 13.5171 21.3483 13.0589C21.2754 12.5799 21.2545 11.9655 21.2962 11.601C21.3379 11.2573 21.4108 10.9033 21.4525 10.82C21.515 10.7054 21.5567 10.7366 21.6088 10.9762C21.6401 11.1428 21.7443 11.5906 21.838 11.9655C21.9214 12.3404 22.1819 13.0381 22.4111 13.5275C22.63 14.017 23.0884 14.7876 23.4219 15.2458C23.7553 15.704 24.1408 16.2872 24.2659 16.5475C24.4013 16.8079 24.5681 17.2036 24.6514 17.4327C24.7348 17.6618 24.839 18.1513 24.8911 18.5261C24.9536 18.9531 24.9536 19.4738 24.8807 19.932C24.8286 20.359 24.641 20.963 24.4326 21.3899C24.245 21.7961 23.8803 22.3792 23.6198 22.6917C23.3698 23.0041 22.8592 23.5039 22.4841 23.7955C22.1194 24.0975 21.4629 24.5557 21.0357 24.8161C20.6085 25.0764 20.2438 25.2847 20.2229 25.2639C20.2125 25.2534 20.4209 24.7952 20.6918 24.2537C20.9628 23.7122 21.2441 23.0041 21.3066 22.6917C21.39 22.3063 21.4004 22.0148 21.3379 21.8065C21.2858 21.6399 21.1503 21.3483 21.0461 21.1817C20.9315 21.015 20.6606 20.7651 20.4418 20.6401C20.2229 20.5152 19.8895 20.411 19.7019 20.4006C19.5248 20.4006 19.2122 20.4631 19.0247 20.536C18.8475 20.6193 18.5349 20.8484 18.3474 21.0567C18.1702 21.2754 17.9618 21.6399 17.8993 21.8898C17.8159 22.2335 17.8264 22.5042 17.9618 23.1603C18.0556 23.6185 18.1806 24.0767 18.2327 24.1808C18.2953 24.285 18.2848 24.3787 18.2223 24.4099C18.1598 24.4412 17.7534 24.0767 17.3054 23.5977C16.8677 23.129 16.305 22.4313 16.055 22.0668C15.8049 21.6919 15.5131 21.14 15.3985 20.8484C15.2735 20.4839 15.2005 20.0361 15.2005 19.5467C15.2005 19.1301 15.2735 18.4845 15.3568 18.1096C15.4506 17.7347 15.6173 17.1724 15.7319 16.8599C15.8466 16.5475 16.1175 15.9331 16.3363 15.5062C16.5447 15.0792 17.0032 14.2773 17.347 13.7358C17.6909 13.1943 18.0869 12.4966 18.2223 12.1842C18.4307 11.7364 18.4828 11.4448 18.4828 10.8304C18.4724 10.2055 18.4203 9.93478 18.2327 9.5703C18.0973 9.30995 17.8993 8.98713 17.7847 8.84133Z" fill="white"/>
</g>
</g>
</g>
</g>
<defs>
<clipPath id="clip0_46427_16416">
<rect width="40" height="40" fill="white"/>
</clipPath>
</defs>
</svg>
