<svg width="56" height="56" viewBox="0 0 56 56" fill="none" xmlns="http://www.w3.org/2000/svg">
<g id="icon">
<path id="Vector" d="M26.3093 23.2059C25.2144 23.2059 24.2585 23.8267 23.8146 24.8261C23.3703 25.8264 23.551 26.9531 24.2861 27.7664L32.0561 36.3611C32.5752 36.9345 33.3133 37.2631 34.0816 37.263H34.0845C34.8524 37.2623 35.5893 36.933 36.1051 36.3608L43.8779 27.7664C44.6124 26.9539 44.7927 25.828 44.3487 24.8281C43.9044 23.8275 42.9475 23.2059 41.8515 23.2059H38.9388V20.7111C42.2914 18.955 44.5846 15.4411 44.5846 11.4012C44.5846 5.60837 39.8732 0.895508 34.0821 0.895508C28.291 0.895508 23.5764 5.60837 23.5764 11.4012C23.5764 15.4404 25.8694 18.9538 29.2222 20.7102V23.2059H26.3095H26.3093ZM25.328 11.4012C25.328 6.57426 29.255 2.64726 34.082 2.64726C38.9089 2.64726 42.8328 6.57426 42.8328 11.4012C42.8328 16.2281 38.9072 20.1521 34.082 20.1521C29.2568 20.1521 25.328 16.2264 25.328 11.4012ZM34.082 21.9037C35.1625 21.9037 36.2053 21.7395 37.187 21.4351V24.0818C37.187 24.5656 37.5791 24.9577 38.0629 24.9577H41.8515C42.4436 24.9577 42.6872 25.4026 42.7476 25.539C42.8081 25.6751 42.9746 26.1534 42.5786 26.5916L34.8049 35.1869C34.6166 35.3959 34.36 35.5111 34.0826 35.5114H34.0815C33.8031 35.5114 33.5449 35.3957 33.3551 35.186L25.5855 26.5917C25.1883 26.1523 25.3549 25.6734 25.4154 25.537C25.4758 25.4012 25.7186 24.9576 26.3091 24.9576H30.0978C30.5815 24.9576 30.9736 24.5655 30.9736 24.0817V21.4345C31.9563 21.7393 33.0001 21.9037 34.0818 21.9037H34.082ZM34.082 18.5212C33.5982 18.5212 33.2061 18.1291 33.2061 17.6453V16.2671H31.3133C30.8295 16.2671 30.4374 15.875 30.4374 15.3912C30.4374 14.9074 30.8295 14.5153 31.3133 14.5153H34.8788C35.4934 14.5153 35.9748 14.0135 35.9748 13.3729C35.9748 12.7686 35.4832 12.2769 34.8788 12.2769H33.2852C31.6883 12.2769 30.4375 11.0042 30.4375 9.37951C30.4375 7.83579 31.6724 6.5759 33.2061 6.53379V5.1537C33.2061 4.66993 33.5982 4.27782 34.082 4.27782C34.5657 4.27782 34.9578 4.66993 34.9578 5.1537V6.53182H36.8507C37.3345 6.53182 37.7266 6.92393 37.7266 7.4077C37.7266 7.89146 37.3345 8.28357 36.8507 8.28357H33.2852C32.6809 8.28357 32.1891 8.77521 32.1891 9.37962C32.1891 10.0328 32.6603 10.5253 33.2852 10.5253H34.8788C36.449 10.5253 37.7265 11.8028 37.7265 13.373C37.7265 14.9689 36.5166 16.2239 34.9578 16.2652V17.6454C34.9578 18.1292 34.5657 18.5212 34.082 18.5212ZM52.0286 40.9871C51.6366 40.0531 50.9014 39.327 49.9585 38.943C49.0169 38.5594 47.9839 38.5639 47.0487 38.9564L46.0997 39.3562C46.0624 39.2364 46.0197 39.1181 45.9701 39.0023C45.5777 38.0694 44.8426 37.3443 43.9002 36.9604C42.9572 36.5761 41.9238 36.5816 40.9904 36.9754L34.5569 39.687C34.3183 39.5053 34.055 39.3534 33.7701 39.2373L23.3605 35.0022C22.4032 34.5523 21.1624 34.5253 20.1901 34.9351L12.2828 38.2648L11.85 37.2375C11.6104 36.6691 11.1627 36.2277 10.589 35.9946C10.0163 35.7617 9.38904 35.7655 8.82433 36.0046L5.06665 37.5858L5.06511 37.5864C3.99751 38.0379 3.48443 39.1998 3.78904 40.4802L6.95697 53.6265C7.07707 54.1308 7.39502 54.5561 7.85254 54.8237C8.21588 55.0362 8.65863 55.1456 9.11768 55.1456C9.38641 55.1456 9.66072 55.1081 9.92771 55.0319L15.9961 53.3047C16.561 53.1432 17.0178 52.7503 17.2824 52.1981C17.5725 51.5928 17.5896 50.861 17.3282 50.2406L16.8952 49.2127L17.9099 48.7863C18.3908 48.5832 18.5554 48.6087 19.2384 48.8509L29.619 53.0786C30.1834 53.3081 30.7752 53.4227 31.3671 53.4227C31.9813 53.4227 32.5955 53.2994 33.1785 53.0527L50.0001 45.9657C50.9335 45.5741 51.6591 44.8391 52.0431 43.8964C52.4276 42.9526 52.422 41.9187 52.0283 40.987L52.0286 40.9871ZM41.671 38.5894C42.1732 38.3774 42.7304 38.3753 43.2394 38.5826C43.7482 38.7899 44.1445 39.1801 44.3576 39.6869C44.4069 39.8017 44.4439 39.9207 44.4703 40.0428L35.6447 43.7615C35.6494 43.7503 35.654 43.7391 35.6586 43.7277C36.0005 42.8891 35.9983 41.9664 35.6546 41.1253L41.6709 38.5895L41.671 38.5894ZM15.7028 51.4411C15.6566 51.5378 15.5933 51.5981 15.5158 51.6202L9.44744 53.3474C9.14786 53.4332 8.86929 53.3892 8.73738 53.3119C8.67405 53.2749 8.66727 53.2463 8.66071 53.2186L5.49277 40.0723C5.47582 40.0013 5.33932 39.3728 5.7474 39.1998L9.50541 37.6185C9.64027 37.5615 9.79099 37.5612 9.92968 37.6174C10.0695 37.6743 10.1782 37.7808 10.2358 37.9177L15.7142 50.9208C15.7819 51.0814 15.7774 51.2857 15.7029 51.4411H15.7028ZM50.421 43.2357C50.2137 43.7443 49.8237 44.1403 49.3213 44.351L32.4975 51.439C31.7829 51.7412 30.9951 51.7473 30.2794 51.4563L19.8807 47.2211C19.8685 47.216 19.8561 47.2113 19.8436 47.2069C18.9592 46.8926 18.2993 46.7202 17.2299 47.1721L16.2152 47.5984L12.963 39.8791L20.8703 36.5494C21.3929 36.3291 22.1156 36.3471 22.6277 36.5935C22.644 36.6013 22.6605 36.6087 22.6773 36.6154L33.1096 40.8597C33.5255 41.0292 33.8513 41.3531 34.0272 41.7716C34.2031 42.1901 34.2064 42.6501 34.0365 43.0672C33.6934 43.9109 32.7468 44.2984 31.8805 43.9506L31.8768 43.949C31.8702 43.9464 31.8636 43.9446 31.8571 43.9422L24.0329 40.7836C23.5847 40.6028 23.074 40.8194 22.8929 41.2679C22.7119 41.7166 22.9287 42.2269 23.3772 42.408L31.2492 45.586C31.2559 45.5888 31.2628 45.5906 31.2697 45.5931L32.4731 46.0785C33.4347 46.468 34.0162 46.3495 35.3896 45.7701L45.6861 41.4315C45.7172 41.4204 45.7475 41.4078 45.7769 41.3932L47.728 40.5711C48.2313 40.3599 48.7889 40.3579 49.298 40.5653C49.8068 40.7725 50.203 41.163 50.4145 41.6669C50.6266 42.1687 50.629 42.7259 50.4214 43.2356L50.421 43.2357ZM9.89982 41.4697C10.0876 41.9154 9.8786 42.429 9.43279 42.6168C9.32166 42.6637 9.20638 42.6858 9.09307 42.6858C8.75127 42.6858 8.42665 42.4846 8.28555 42.1499L7.50418 40.2959C7.31638 39.8502 7.5254 39.3366 7.97121 39.1488C8.41702 38.9605 8.93065 39.1699 9.11844 39.6158L9.89982 41.4698V41.4697Z" fill="#980517"/>
</g>
</svg>
