<svg width="56" height="56" viewBox="0 0 56 56" fill="none" xmlns="http://www.w3.org/2000/svg">
<g id="icon">
<g id="Group">
<g id="Group_2">
<g id="Group_3">
<path id="Vector" d="M47.32 26.5443H44.576V22.5683C44.576 22.1763 44.2401 21.8403 43.8481 21.8403C41.6081 21.8403 39.3681 22.4563 37.2401 23.1283C37.1281 23.7443 36.9601 24.3043 36.7361 24.8643C38.9201 24.1363 41.0481 23.5203 43.1761 23.3523V42.7283C40.6561 42.8403 38.1921 43.6803 35.7281 44.4643C33.3201 45.2483 31.0241 46.0323 28.7841 46.1443V37.6323C28.5041 37.6883 28.2801 37.6883 28.0561 37.6883C27.8321 37.6883 27.5521 37.6883 27.3281 37.6323V46.1443C25.0321 45.9763 22.7921 45.2483 20.3841 44.4643C17.9761 43.6803 15.4561 42.8403 12.9361 42.7283V23.3523C15.0641 23.4643 17.1361 24.1363 19.3201 24.8643C19.0961 24.3043 18.9281 23.7443 18.8161 23.1283C16.6321 22.4563 14.4481 21.8403 12.2081 21.8403C11.8161 21.8403 11.4801 22.1763 11.4801 22.5683V26.5443H8.73606C8.34406 26.5443 8.00806 26.8803 8.00806 27.2723V46.8723C8.00806 47.2643 8.34406 47.6003 8.73606 47.6003H47.376C47.7681 47.6003 48.1041 47.2643 48.1041 46.8723V27.2723C48.048 26.8803 47.7121 26.5443 47.32 26.5443ZM9.40806 46.1443V28.0563H11.3681V43.4563C11.3681 43.8483 11.7041 44.1843 12.0961 44.1843C14.6161 44.1843 17.1361 45.0243 19.8241 45.8643C20.1601 45.9763 20.4401 46.0883 20.7761 46.1443H9.40806ZM46.592 46.1443H35.2241C35.5601 46.0323 35.8401 45.9203 36.1761 45.8643C38.8641 44.9683 41.3281 44.1843 43.9041 44.1843C44.2961 44.1843 44.632 43.8483 44.632 43.4563V28.0563H46.592V46.1443Z" fill="#980517"/>
<path id="Vector_2" d="M15.6801 32.0885C17.0241 32.4245 18.4801 32.9285 19.8241 33.4325C21.1681 33.9365 22.5681 34.4405 23.9121 34.7765C23.4081 34.3845 23.1281 33.7685 23.1281 33.0965V33.0405C22.1761 32.7605 21.2801 32.4245 20.3281 32.0885C18.9281 31.5845 17.4721 31.0245 16.0161 30.6885C15.6241 30.5765 15.2321 30.8565 15.1201 31.2485C15.0081 31.6405 15.2881 32.0325 15.6801 32.0885Z" fill="#980517"/>
<path id="Vector_3" d="M15.6801 28.1124C17.0241 28.4484 18.4801 28.9524 19.8241 29.4564C20.8881 29.8484 21.9521 30.2404 23.0721 30.5764C22.9601 29.9044 22.6801 29.2884 22.2321 28.7844C21.6161 28.5604 20.9441 28.3364 20.3281 28.1124C18.9281 27.6084 17.4721 27.0484 16.0161 26.7124C15.6241 26.6004 15.2321 26.8804 15.1201 27.2724C15.0081 27.6084 15.2881 28.0564 15.6801 28.1124Z" fill="#980517"/>
<path id="Vector_4" d="M24.4721 37.408C23.1281 37.072 21.6721 36.568 20.3281 36.064C18.9281 35.56 17.4721 35 16.0161 34.664C15.6241 34.552 15.2321 34.832 15.1201 35.224C15.0081 35.616 15.2881 36.008 15.6801 36.12C17.0241 36.456 18.4801 36.96 19.8241 37.464C21.2241 37.968 22.6801 38.528 24.1361 38.864H24.3041C24.6401 38.864 24.9201 38.64 25.0321 38.304C25.1441 37.856 24.8641 37.464 24.4721 37.408Z" fill="#980517"/>
<path id="Vector_5" d="M24.4721 41.3841C23.1281 41.0481 21.6721 40.5441 20.3281 40.0401C18.9281 39.5361 17.4721 38.9761 16.0161 38.6401C15.6241 38.5281 15.2321 38.8081 15.1201 39.2001C15.0081 39.5921 15.2881 39.9841 15.6801 40.0961C17.0241 40.4321 18.4801 40.9361 19.8241 41.4401C21.2241 41.9441 22.6801 42.5041 24.1361 42.8401H24.3041C24.6401 42.8401 24.9201 42.6161 25.0321 42.2801C25.1441 41.8321 24.8641 41.4401 24.4721 41.3841Z" fill="#980517"/>
<path id="Vector_6" d="M40.88 31.2482C40.768 30.8562 40.376 30.6322 39.984 30.6882C38.528 31.0242 37.072 31.5842 35.672 32.0882C34.776 32.4242 33.824 32.7602 32.872 33.0402V33.0962C32.872 33.7682 32.536 34.3842 32.088 34.7762C33.488 34.4402 34.832 33.9362 36.176 33.4322C37.52 32.9282 38.976 32.4242 40.32 32.0882C40.768 32.0322 40.992 31.6402 40.88 31.2482Z" fill="#980517"/>
<path id="Vector_7" d="M40.8801 27.2162C40.7681 26.8242 40.3761 26.5442 39.9841 26.6562C38.5281 26.9922 37.0721 27.5522 35.6721 28.0562C35.0561 28.2802 34.4401 28.5042 33.8241 28.7282C33.3761 29.2882 33.0401 29.9042 32.9281 30.5762C33.9921 30.2402 35.1121 29.8482 36.1761 29.4562C37.5201 28.9522 38.9761 28.4482 40.3201 28.1122C40.7681 28.0562 40.9921 27.6082 40.8801 27.2162Z" fill="#980517"/>
<path id="Vector_8" d="M40.8801 35.2243C40.7681 34.8323 40.3761 34.6083 39.9841 34.6643C38.5281 35.0003 37.0721 35.5603 35.6721 36.0643C34.3281 36.5683 32.8721 37.0723 31.5281 37.4083C31.1361 37.5203 30.9121 37.9123 30.9681 38.3043C31.0241 38.6403 31.3601 38.8643 31.6961 38.8643H31.8641C33.3201 38.5283 34.7761 37.9683 36.1761 37.4643C37.5201 36.9603 38.9761 36.4563 40.3201 36.1203C40.7121 36.0083 40.9921 35.6163 40.8801 35.2243Z" fill="#980517"/>
<path id="Vector_9" d="M39.9841 38.6401C38.5281 38.9761 37.0721 39.5361 35.6721 40.0401C34.3281 40.5441 32.8721 41.0481 31.5281 41.3841C31.1361 41.4961 30.9121 41.8881 30.9681 42.2801C31.0241 42.6161 31.3601 42.8401 31.6961 42.8401H31.8641C33.3201 42.5041 34.7761 41.9441 36.1761 41.4401C37.5201 40.9361 38.9761 40.4321 40.3201 40.0961C40.7121 39.9841 40.9361 39.5921 40.8801 39.2001C40.7681 38.8081 40.3761 38.5281 39.9841 38.6401Z" fill="#980517"/>
<path id="Vector_10" d="M28.0001 17.976C29.7921 17.976 31.2481 19.432 31.2481 21.224C31.2481 21.616 31.5841 21.952 31.9761 21.952C32.3681 21.952 32.7041 21.616 32.7041 21.224C32.7041 18.648 30.5761 16.52 28.0001 16.52C27.6081 16.52 27.2721 16.856 27.2721 17.248C27.2721 17.64 27.6081 17.976 28.0001 17.976Z" fill="#980517"/>
<path id="Vector_11" d="M28 36.2324C30.184 36.2324 30.688 34.8324 30.8 33.7684C31.136 33.7124 31.416 33.4324 31.416 33.0404V31.1364C31.416 29.6804 32.088 28.2244 33.264 27.1604C34.944 25.6484 35.952 23.4644 35.952 21.2244C35.952 19.0404 35.056 16.9124 33.432 15.4004C31.808 13.8884 29.68 13.1044 27.496 13.2724C23.52 13.5524 20.328 16.7444 20.048 20.7204C19.88 23.2404 20.888 25.6484 22.792 27.2724C23.912 28.2244 24.528 29.6804 24.528 31.1924V33.0964C24.528 33.4324 24.808 33.7684 25.144 33.8244C25.312 34.8324 25.816 36.2324 28 36.2324ZM29.96 31.1364V32.3124H26.04V31.1364C26.04 31.0804 26.04 31.0804 26.04 31.0244H29.96V31.1364ZM28 34.7204C27.16 34.7204 26.824 34.4964 26.656 33.7684H29.288C29.176 34.5524 28.84 34.7204 28 34.7204ZM23.8 26.1524C22.232 24.8084 21.392 22.8484 21.56 20.8324C21.784 17.5844 24.36 14.9524 27.608 14.7844C29.4 14.6724 31.136 15.2884 32.48 16.5204C33.824 17.7524 34.552 19.4324 34.552 21.2244C34.552 23.0724 33.768 24.8644 32.368 26.0964C31.304 27.0484 30.576 28.2804 30.24 29.6244H25.928C25.536 28.2804 24.808 27.0484 23.8 26.1524Z" fill="#980517"/>
<path id="Vector_12" d="M16.1281 19.1523L17.5841 19.4883H17.7521C18.0881 19.4883 18.3681 19.2643 18.4801 18.9283C18.5921 18.5363 18.3121 18.1443 17.9201 18.0323L16.4641 17.6963C16.0721 17.5843 15.6801 17.8643 15.5681 18.2563C15.4561 18.7043 15.7361 19.0963 16.1281 19.1523Z" fill="#980517"/>
<path id="Vector_13" d="M19.3201 15.1204C19.4321 15.2324 19.6001 15.2884 19.7681 15.2884C19.9921 15.2884 20.2161 15.1764 20.3281 15.0084C20.6081 14.6724 20.5521 14.2244 20.2161 14.0004L19.0401 13.0484C18.7041 12.7684 18.2561 12.8244 18.0321 13.1604C17.7521 13.4964 17.8081 13.9444 18.1441 14.1684L19.3201 15.1204Z" fill="#980517"/>
<path id="Vector_14" d="M22.736 11.9281C22.848 12.2081 23.128 12.3201 23.408 12.3201C23.52 12.3201 23.632 12.3201 23.744 12.2641C24.136 12.0961 24.248 11.6481 24.08 11.2561L23.408 9.91209C23.24 9.52009 22.792 9.40809 22.4 9.57609C22.008 9.74409 21.896 10.1921 22.064 10.5841L22.736 11.9281Z" fill="#980517"/>
<path id="Vector_15" d="M28.0001 11.3122C28.3921 11.3122 28.7281 10.9762 28.7281 10.5842V9.07224C28.7281 8.68024 28.3921 8.34424 28.0001 8.34424C27.6081 8.34424 27.2721 8.68024 27.2721 9.07224V10.5842C27.2721 10.9762 27.6081 11.3122 28.0001 11.3122Z" fill="#980517"/>
<path id="Vector_16" d="M32.2561 12.3203C32.3681 12.3763 32.4801 12.3763 32.5921 12.3763C32.8721 12.3763 33.1521 12.2083 33.2641 11.9843L33.9361 10.6403C34.1041 10.2483 33.9361 9.85631 33.6001 9.63231C33.2081 9.46431 32.8161 9.63231 32.5921 9.96831L31.9201 11.3123C31.7521 11.7043 31.8641 12.0963 32.2561 12.3203Z" fill="#980517"/>
<path id="Vector_17" d="M36.2321 15.2884C36.4001 15.2884 36.5681 15.2324 36.6801 15.1204L37.8561 14.1684C38.1921 13.8884 38.2481 13.4404 37.9681 13.1604C37.6881 12.8244 37.2401 12.7684 36.9601 13.0484L35.7841 14.0004C35.4481 14.2804 35.3921 14.7284 35.6721 15.0084C35.7841 15.1764 36.0081 15.2884 36.2321 15.2884Z" fill="#980517"/>
<path id="Vector_18" d="M37.576 18.9283C37.632 19.2643 37.968 19.4883 38.304 19.4883H38.472L39.928 19.1523C40.32 19.0403 40.6 18.6483 40.488 18.2563C40.376 17.8643 39.984 17.5843 39.592 17.6963L38.136 18.0323C37.744 18.1443 37.464 18.5363 37.576 18.9283Z" fill="#980517"/>
</g>
</g>
</g>
</g>
</svg>
