<svg width="56" height="56" viewBox="0 0 56 56" fill="none" xmlns="http://www.w3.org/2000/svg">
<g id="icon">
<g id="Group">
<g id="Group_2">
<path id="Vector" d="M33.9829 28.4569L29.8046 26.8452L27.4063 24.4471C27.2503 24.2911 27.0462 24.211 26.8405 24.2074V22.2476C27.9755 21.0418 28.7819 19.511 29.1011 17.785C29.1017 17.7843 29.1025 17.7834 29.1033 17.7827C29.3122 17.7951 29.523 17.7798 29.7315 17.7371C30.8587 17.5063 31.677 16.4598 31.677 15.2487V14.6206C31.677 13.9106 31.3851 13.26 30.9118 12.7992C31.681 8.65703 31.06 5.28325 29.108 3.02914C27.226 0.855968 24.192 -0.182001 20.3335 0.0261396C16.7398 0.22039 14.4318 1.88475 13.7236 2.47155C12.727 2.60105 9.88464 3.31931 9.88464 7.29378C9.88464 9.49451 10.2422 11.3248 10.4933 12.3394C9.64752 12.7347 9.07866 13.6175 9.07866 14.6299V15.2486C9.07866 16.4597 9.89678 17.5062 11.0242 17.737C11.2325 17.7797 11.4437 17.795 11.6524 17.7826C11.6531 17.7834 11.6539 17.7843 11.6545 17.785C11.9737 19.5109 12.7801 21.0417 13.9151 22.2475V24.2073C13.7094 24.2109 13.5053 24.291 13.3493 24.447L10.9512 26.8451L6.25142 28.6579C3.9913 29.5296 2.53803 31.7415 2.63494 34.162L3.30245 50.8284C3.32017 51.27 3.68362 51.6159 4.12156 51.6159C4.13272 51.6159 4.14387 51.6157 4.15503 51.6153C4.60773 51.5971 4.95992 51.2155 4.94187 50.7628L4.27436 34.0966C4.25664 33.6536 4.31253 33.2206 4.43208 32.811L7.09667 35.4756C7.85519 36.2341 8.27289 37.2426 8.27289 38.3153V50.7958C8.27289 51.2489 8.64017 51.6161 9.0932 51.6161C9.54623 51.6161 9.91352 51.2489 9.91352 50.7958V38.3153C9.91352 36.8044 9.32519 35.3838 8.2567 34.3154L5.25009 31.3088C5.67141 30.8215 6.21227 30.4317 6.84194 30.1888L11.2269 28.4974L14.5744 33.5186C14.9802 34.1274 15.6305 34.5179 16.3587 34.59C16.4397 34.5979 16.5205 34.6019 16.601 34.6019C17.0485 34.6019 17.4816 34.4766 17.8594 34.2467L17.1405 50.7601C17.1208 51.2127 17.4717 51.5956 17.9244 51.6153C17.9365 51.6158 17.9486 51.616 17.9607 51.616C18.3973 51.616 18.7604 51.2719 18.7796 50.8314L19.4462 35.5201H21.3103L21.9769 50.8314C21.9961 51.2718 22.3592 51.616 22.7958 51.616C22.8078 51.616 22.82 51.6158 22.8321 51.6153C23.2847 51.5956 23.6357 51.2127 23.616 50.7601L22.8971 34.2467C23.2749 34.4766 23.7079 34.6019 24.1553 34.6019C24.2357 34.6019 24.3167 34.5979 24.3976 34.59C25.1251 34.5181 25.7754 34.1275 26.1813 33.5187L29.5288 28.4975L33.3923 29.9878C33.4894 30.0252 33.5892 30.0429 33.6874 30.0429C34.0166 30.0429 34.3273 29.8432 34.4529 29.5176C34.6161 29.0948 34.4055 28.62 33.9829 28.4569ZM13.2661 17.4778C13.1178 16.6709 12.3701 16.0857 11.565 16.1443C11.4958 16.1492 11.4245 16.1444 11.3531 16.1299C10.9917 16.0559 10.7193 15.677 10.7193 15.2487V14.63C10.7193 14.2109 11.0014 13.8331 11.3614 13.7699C11.6645 13.7167 11.9547 13.8281 12.1386 14.0679C12.2914 14.2671 12.4951 14.4095 12.7282 14.4799C13.0687 14.5826 13.4445 14.5224 13.7333 14.3184C14.4001 13.8477 14.9652 13.2508 15.4129 12.5442C15.6554 12.1615 15.5417 11.6547 15.1591 11.4122C14.7762 11.1695 14.2696 11.2833 14.0271 11.6659C13.7718 12.0688 13.4665 12.4227 13.1161 12.7221C12.837 12.4762 12.5071 12.3002 12.1528 12.2032C11.933 11.3758 11.5253 9.53816 11.5253 7.29367C11.5253 5.95766 11.9394 5.01812 12.7562 4.50155C13.392 4.09926 14.0633 4.08384 14.0635 4.08373C14.2733 4.08373 14.4774 4.00116 14.6298 3.857C14.6508 3.83698 16.7781 1.86123 20.4219 1.66436C23.7555 1.48378 26.33 2.3275 27.8675 4.10298C29.425 5.90166 29.9383 8.66523 29.3651 12.1227C29.1186 12.1112 28.8452 12.1291 28.5734 12.1768L27.7514 10.2025C27.594 9.8245 27.1817 9.62051 26.7858 9.72442C26.7057 9.74542 18.7329 11.7797 15.3711 7.59467C15.0875 7.2415 14.5711 7.18506 14.2179 7.46889C13.8647 7.75261 13.8083 8.26886 14.0921 8.62214C17.5021 12.8675 24.2927 11.9157 26.5018 11.4697L27.1407 13.0042C27.402 13.6316 28.0703 13.9743 28.7295 13.819C28.988 13.7581 29.2692 13.747 29.3919 13.7714C29.7592 13.8445 30.0361 14.2095 30.0361 14.6205V15.2486C30.0361 15.677 29.7635 16.0558 29.4024 16.1297C29.3308 16.1444 29.2597 16.1492 29.1904 16.1442C28.3856 16.0853 27.6375 16.6708 27.4894 17.4778C26.859 20.9098 23.8681 23.4007 20.3777 23.4007C16.8873 23.4007 13.8964 20.9098 13.2661 17.4778ZM17.158 32.7294C16.9894 32.8978 16.7568 32.981 16.5199 32.9574C16.2829 32.934 16.0712 32.8069 15.9391 32.6087L12.5666 27.5499L13.9666 26.1499L19.1777 30.7095L17.158 32.7294ZM19.5171 33.8796L19.5712 32.6362L20.3776 31.8297L21.1842 32.6362L21.2383 33.8796H19.5171ZM20.3776 29.5796L15.5555 25.3602V23.616C16.9525 24.5212 18.6127 25.0414 20.3776 25.0414C22.1426 25.0414 23.8028 24.5212 25.1997 23.616V25.3602L20.3776 29.5796ZM24.8164 32.6086C24.6842 32.8069 24.4725 32.934 24.2355 32.9574C24.0962 32.9715 23.8282 32.9598 23.5976 32.7294L21.5779 30.7095L26.7889 26.1499L28.1889 27.5499L24.8164 32.6086Z" fill="#980517"/>
</g>
</g>
<g id="Group_3">
<g id="Group_4">
<path id="Vector_2" d="M53.3698 38.5208C53.3698 36.6181 51.822 35.0703 49.9193 35.0703H44.6022V33.2603C44.6022 31.8411 43.4476 30.6865 42.0284 30.6865H36.7677C35.3484 30.6865 34.1939 31.8412 34.1939 33.2603V35.0703H28.8768C26.9741 35.0703 25.4263 36.6181 25.4263 38.5208V40.9563C25.4263 41.8541 25.7286 42.7164 26.303 43.5137V52.6382C26.303 54.4917 27.811 55.9996 29.6644 55.9996H49.1318C50.9852 55.9996 52.4932 54.4917 52.4932 52.6382V43.5137C53.0676 42.7162 53.3699 41.854 53.3699 40.9562L53.3698 38.5208ZM35.8344 33.2602C35.8345 32.7456 36.2532 32.327 36.7677 32.327H42.0283C42.5429 32.327 42.9615 32.7457 42.9615 33.2602V35.0702H35.8344V33.2602ZM51.7291 40.9564C51.7291 42.3645 50.3967 43.7609 48.1091 44.804V44.6583C48.1091 44.2053 47.7418 43.838 47.2888 43.838H43.7818C43.3288 43.838 42.9615 44.2053 42.9615 44.6583V47.2886C42.9615 48.7078 44.1162 49.8624 45.5353 49.8624C46.9544 49.8624 48.1091 48.7077 48.1091 47.2886V46.587C49.1742 46.1609 50.0937 45.665 50.8523 45.1141V52.6383C50.8525 53.5871 50.0806 54.359 49.1317 54.359H29.6644C28.7156 54.359 27.9436 53.587 27.9436 52.6382V45.114C28.7023 45.6649 29.6217 46.1608 30.6869 46.587V47.2886C30.6869 48.7078 31.8416 49.8624 33.2607 49.8624C34.4797 49.8624 35.5028 49.0102 35.7673 47.8705C36.9452 48.0279 38.1621 48.1089 39.3981 48.1089C39.6977 48.1089 40.0015 48.1041 40.3007 48.0945C40.7535 48.0802 41.109 47.7014 41.0946 47.2486C41.0802 46.7958 40.7048 46.4391 40.2487 46.4548C39.9666 46.4638 39.6805 46.4682 39.3979 46.4682C38.1818 46.4682 36.9867 46.3854 35.8344 46.2241V44.6583C35.8344 44.2053 35.4671 43.838 35.0141 43.838H31.5071C31.054 43.838 30.6868 44.2053 30.6868 44.6583V44.804C28.3992 43.7609 27.0668 42.3644 27.0668 40.9564V38.5209C27.0668 37.5229 27.8787 36.711 28.8767 36.711H49.9192C50.9172 36.711 51.7291 37.5229 51.7291 38.5209V40.9564ZM46.4687 45.4785V47.2884C46.4687 47.8031 46.05 48.2216 45.5355 48.2216C45.021 48.2216 44.6023 47.8029 44.6023 47.2884V45.4785H46.4687ZM32.3274 47.2884V45.4785H34.1938V47.2884C34.1938 47.8031 33.7751 48.2216 33.2606 48.2216C32.7461 48.2216 32.3274 47.8031 32.3274 47.2884Z" fill="#980517"/>
</g>
</g>
</g>
</svg>
