<svg width="56" height="56" viewBox="0 0 56 56" fill="none" xmlns="http://www.w3.org/2000/svg">
<g clip-path="url(#clip0_47419_354)">
<path d="M12.4343 21.3858C12.6931 21.5784 12.8778 21.8523 12.9539 22.1571L13.2008 23.1446C13.4666 24.2081 14.2761 25.0174 15.2893 25.307V26.3594C15.2893 27.7165 16.3932 28.8204 17.7502 28.8204H18.6867V29.6988C18.6867 30.1518 19.054 30.5191 19.507 30.5191C19.96 30.5191 20.3273 30.1518 20.3273 29.6988V28.8204H21.2638C22.6208 28.8204 23.7247 27.7165 23.7247 26.3594V25.307C24.7378 25.0174 25.5473 24.2081 25.8131 23.1446L26.06 22.1574C26.1361 21.8525 26.3221 21.5774 26.5839 21.3827C29.5802 19.1521 31.3689 15.5929 31.3689 11.8621C31.3689 8.66224 30.114 5.66242 27.8352 3.41542C25.557 1.16885 22.5386 -0.0449902 19.3369 0.00127541C17.3586 0.0289473 15.4027 0.560619 13.6807 1.53876C13.2867 1.76254 13.1488 2.26326 13.3726 2.65723C13.5964 3.0512 14.0972 3.18912 14.491 2.96534C15.9735 2.12326 17.6572 1.66553 19.36 1.64168C22.1188 1.60318 24.7202 2.64782 26.6834 4.58354C28.647 6.51981 29.7284 9.10467 29.7284 11.862C29.7284 15.1249 28.2252 18.1153 25.6042 20.0666C25.0395 20.487 24.6361 21.0881 24.4685 21.7594L24.2216 22.7466C24.0692 23.3563 23.5238 23.7821 22.8953 23.7821H20.3274V13.5316H22.9045C23.3575 13.5316 23.7248 13.1643 23.7248 12.7113C23.7248 12.2583 23.3575 11.891 22.9045 11.891H16.1096C15.6565 11.891 15.2893 12.2583 15.2893 12.7113C15.2893 13.1643 15.6565 13.5316 16.1096 13.5316H18.6867V23.7821H16.1188C15.4902 23.7821 14.9448 23.3562 14.7924 22.7465L14.5455 21.759C14.3776 21.0876 13.9757 20.4874 13.4134 20.0692C10.776 18.1075 9.2335 14.9757 9.28688 11.6912C9.32472 9.37034 10.1725 7.10573 11.6743 5.31449C11.9654 4.96734 11.9199 4.44988 11.5727 4.15884C11.2254 3.86779 10.7081 3.91318 10.417 4.26045C8.67438 6.33934 7.69044 8.96882 7.64658 11.6647C7.58456 15.4759 9.37427 19.11 12.4343 21.3858ZM21.2639 27.1798H17.7502C17.2978 27.1798 16.9299 26.8118 16.9299 26.3594V25.423H22.0842V26.3594C22.0842 26.8118 21.7163 27.1798 21.2639 27.1798Z" fill="#980517"/>
<path d="M3.01709 12.3311H4.71579C5.16882 12.3311 5.53611 11.9638 5.53611 11.5107C5.53611 11.0577 5.16882 10.6904 4.71579 10.6904H3.01709C2.56406 10.6904 2.19678 11.0577 2.19678 11.5107C2.19678 11.9638 2.56406 12.3311 3.01709 12.3311Z" fill="#980517"/>
<path d="M5.33693 6.99408C5.49706 7.15431 5.70706 7.23437 5.91695 7.23437C6.12684 7.23437 6.33684 7.15431 6.49697 6.99408C6.81732 6.67372 6.81732 6.15429 6.49697 5.83404L5.29581 4.63289C4.97545 4.31242 4.45603 4.31253 4.13578 4.63289C3.81542 4.95325 3.81542 5.47267 4.13578 5.79292L5.33693 6.99408Z" fill="#980517"/>
<path d="M5.33693 16.0263L4.13578 17.2276C3.81542 17.5479 3.81542 18.0674 4.13578 18.3876C4.2959 18.5477 4.5059 18.6279 4.71579 18.6279C4.92568 18.6279 5.13568 18.5478 5.29581 18.3876L6.49697 17.1864C6.81732 16.8661 6.81732 16.3467 6.49697 16.0264C6.17672 15.7061 5.65729 15.7061 5.33693 16.0263Z" fill="#980517"/>
<path d="M33.4775 11.5107C33.4775 11.9638 33.8448 12.3311 34.2979 12.3311H35.9966C36.4496 12.3311 36.8169 11.9638 36.8169 11.5107C36.8169 11.0577 36.4496 10.6904 35.9966 10.6904H34.2979C33.8448 10.6904 33.4775 11.0577 33.4775 11.5107Z" fill="#980517"/>
<path d="M33.0968 7.23437C33.3067 7.23437 33.5167 7.15431 33.6768 6.99408L34.8779 5.79292C35.1983 5.47256 35.1983 4.95325 34.8779 4.63289C34.5577 4.31242 34.0383 4.31253 33.7179 4.63289L32.5166 5.83404C32.1963 6.1544 32.1963 6.67372 32.5166 6.99408C32.6769 7.15431 32.8868 7.23437 33.0968 7.23437Z" fill="#980517"/>
<path d="M33.7178 18.3876C33.8779 18.5477 34.0879 18.6279 34.2978 18.6279C34.5077 18.6279 34.7177 18.5478 34.8778 18.3876C35.1982 18.0672 35.1982 17.5478 34.8778 17.2276L33.6767 16.0264C33.3563 15.706 32.8369 15.706 32.5166 16.0264C32.1963 16.3468 32.1963 16.8662 32.5166 17.1864L33.7178 18.3876Z" fill="#980517"/>
<path d="M55.6705 33.2492L53.0643 28.7352C52.7356 28.1659 52.205 27.7587 51.57 27.5886C50.9351 27.4184 50.2719 27.5058 49.7027 27.8345L47.4205 29.1521L40.1863 16.6222C39.9598 16.2299 39.458 16.0954 39.0657 16.322C38.6734 16.5485 38.539 17.0502 38.7655 17.4425L45.9997 29.9724L44.7151 30.7141C43.801 31.2417 43.4867 32.4147 44.0144 33.3288L45.1168 35.2383L41.3041 41.8425L38.333 38.8714C38.0127 38.551 37.4933 38.551 37.173 38.8714C36.8526 39.1918 36.8526 39.7112 37.173 40.0314L40.9 43.7584C41.0802 43.9386 41.3343 44.0252 41.5871 43.9917C41.8399 43.9583 42.0629 43.8094 42.1904 43.5885L44.1115 40.2607L48.5756 42.8379L45.0772 48.897C44.5202 49.8618 43.5673 50.4985 42.4627 50.644C41.3582 50.7893 40.2729 50.421 39.4852 49.6332L31.9777 42.1257C31.7431 41.8911 31.3902 41.821 31.0838 41.9479C30.7772 42.0749 30.5774 42.374 30.5774 42.7058V54.0851C30.5774 54.2359 30.4546 54.3586 30.3039 54.3586H20.3272V50.2767L28.5073 33.9164H29.1324C30.3741 33.9164 31.5414 34.3999 32.4193 35.2779L34.4546 37.3131C34.6147 37.4733 34.8247 37.5534 35.0346 37.5534C35.2445 37.5534 35.4545 37.4734 35.6146 37.3131C35.935 36.9928 35.935 36.4734 35.6146 36.1531L33.5794 34.1179C32.3916 32.93 30.8122 32.2759 29.1323 32.2759H7.93018C3.55769 32.2759 0.000488281 35.8331 0.000488281 40.2056V54.0852C0.000488281 55.1406 0.859191 55.9993 1.91455 55.9993H7.59035C7.59877 55.9995 7.60719 55.9997 7.61572 55.9997C7.62425 55.9997 7.63268 55.9995 7.6411 55.9993H19.4815C19.4899 55.9995 19.4983 55.9997 19.5069 55.9997C19.5154 55.9997 19.5238 55.9995 19.5322 55.9993H30.3039C31.3593 55.9993 32.218 55.1406 32.218 54.0852V44.6863L38.3251 50.7934C39.4763 51.9447 41.062 52.4833 42.6769 52.2706C44.2911 52.0581 45.6839 51.1275 46.498 49.7175L53.713 37.221L54.7698 36.611C55.9448 35.9325 56.349 34.4244 55.6705 33.2492ZM26.6732 33.9162L24.9446 37.3735L21.4872 33.9162H26.6732ZM17.5264 33.9162L14.0691 37.3735L12.3404 33.9162H17.5264ZM1.64111 54.0851V40.2055C1.64111 36.7376 4.46233 33.9164 7.93018 33.9164H10.5064L15.625 44.1538C15.7688 44.4412 16.0584 44.6074 16.3594 44.6074C16.4826 44.6074 16.6078 44.5795 16.7256 44.5206C17.1308 44.3181 17.2951 43.8253 17.0924 43.4201L14.8425 38.9203L19.5069 34.2559L24.1713 38.9203L19.5069 48.2489L18.8497 46.9346C18.6472 46.5293 18.1544 46.365 17.7492 46.5678C17.344 46.7704 17.1797 47.2631 17.3824 47.6683L18.6866 50.2767V54.3586H8.43604V42.4389C8.43604 41.9859 8.06875 41.6186 7.61572 41.6186C7.16269 41.6186 6.79541 41.9859 6.79541 42.4389V54.3586H1.91455C1.76372 54.3586 1.64111 54.236 1.64111 54.0851ZM45.4078 32.3009C45.4188 32.26 45.4498 32.1842 45.5353 32.1349L46.82 31.3932L48.6554 34.5723C49.0644 35.2807 48.8208 36.1897 48.1125 36.5986C47.9817 36.6739 47.8143 36.6291 47.7388 36.4985L45.4352 32.5085C45.3859 32.4231 45.3968 32.3418 45.4078 32.3009ZM44.9317 38.8399L46.0639 36.8788L46.318 37.3188C46.6721 37.9322 47.3168 38.2755 47.9789 38.2755C48.3034 38.2755 48.6321 38.1931 48.9327 38.0195C49.3973 37.7512 49.767 37.3808 50.0297 36.9527L50.1097 37.0912C50.3653 37.534 50.778 37.8507 51.2718 37.9831C51.3029 37.9914 51.3341 37.9989 51.3654 38.0057L49.3958 41.4171L44.9317 38.8399ZM53.9494 35.1902L51.904 36.3711C51.8185 36.4204 51.7373 36.4094 51.6965 36.3984C51.6556 36.3875 51.5798 36.3563 51.5304 36.271L48.2407 30.5729L50.5229 29.2553C50.7124 29.1457 50.9336 29.1166 51.1452 29.1732C51.3569 29.23 51.5337 29.3657 51.6433 29.5555L54.2495 34.0695C54.4758 34.4613 54.3412 34.964 53.9494 35.1902Z" fill="#980517"/>
<path d="M19.5068 39.0127C19.9599 39.0127 20.3271 38.6454 20.3271 38.1924C20.3271 37.7393 19.9599 37.3721 19.5068 37.3721C19.0538 37.3721 18.6865 37.7393 18.6865 38.1924C18.6865 38.6454 19.0538 39.0127 19.5068 39.0127Z" fill="#980517"/>
<path d="M19.5068 42.4102C19.9599 42.4102 20.3271 42.0429 20.3271 41.5898C20.3271 41.1368 19.9599 40.7695 19.5068 40.7695C19.0538 40.7695 18.6865 41.1368 18.6865 41.5898C18.6865 42.0429 19.0538 42.4102 19.5068 42.4102Z" fill="#980517"/>
</g>
<defs>
<clipPath id="clip0_47419_354">
<rect width="56" height="56" fill="white"/>
</clipPath>
</defs>
</svg>
