<svg width="56" height="56" viewBox="0 0 56 56" fill="none" xmlns="http://www.w3.org/2000/svg">
<g id="icon" clip-path="url(#clip0_47419_460)">
<g id="Group">
<path id="Vector" d="M55.0588 29.4535L55.0006 28.4205C54.9354 27.2643 53.6881 26.5155 52.637 27.0013C51.6229 27.4701 50.6089 27.939 49.5949 28.4079C47.609 28.3093 46.1332 27.7473 45.2098 26.7335C44.4035 25.8483 44.2065 24.8052 44.1604 24.2674L49.9748 20.0799C50.1164 19.978 50.2218 19.8336 50.2756 19.6676L55.9594 2.16734C56.1689 1.52247 55.4094 0.737493 54.6997 1.24838L47.9738 6.09224L43.2414 2.59489C40.9548 0.702602 36.0189 7.62359 35.1009 8.86587C34.0784 10.2496 29.0588 16.6874 31.4954 18.4881L36.3338 22.0637L33.7843 29.914C33.5444 30.6523 34.4145 31.2861 35.0438 30.8329L42.6784 25.3347C42.8602 26.0779 43.2297 26.9856 43.9737 27.8127C45.2177 29.1955 47.1197 29.9482 49.6261 30.0521L52.8692 31.129C53.9654 31.4926 55.1235 30.6047 55.0588 29.4535ZM37.6794 21.018L33.8625 18.1974C34.3535 17.8937 34.8287 17.5079 35.2363 17.1524C36.6004 15.9625 38.1628 14.2098 39.6356 12.2169C41.1082 10.224 42.3252 8.21596 43.0622 6.56266C43.2823 6.06873 43.5121 5.50129 43.6584 4.94294L47.4749 7.76337C47.5581 8.43285 46.5393 11.2089 43.619 15.1607C40.6987 19.1125 38.3439 20.9011 37.6794 21.018ZM36.4205 9.84083C39.1093 6.20238 41.3185 4.39749 42.1705 4.0429C42.0816 4.96142 41.0048 7.60325 38.3161 11.2417C35.6273 14.8801 33.418 16.685 32.5659 17.0396C32.6549 16.121 33.7316 13.4793 36.4205 9.84083ZM37.8697 22.6461C38.7705 22.5136 39.7734 21.7388 40.539 21.071C41.9032 19.8811 43.4655 18.1283 44.9381 16.1354C46.4108 14.1426 47.6278 12.1346 48.3647 10.4812C48.7996 9.50571 49.2718 8.24407 49.062 7.33058L53.6249 4.04443L48.7983 18.9056L36.119 28.037L37.8697 22.6461ZM53.4105 29.5679C53.3995 29.5763 53.3937 29.5746 53.3864 29.572L51.9896 29.1082L53.3256 28.4906C53.3458 28.4849 53.3581 28.4923 53.3626 28.5127L53.4208 29.5457C53.4211 29.5534 53.4215 29.5596 53.4105 29.5679Z" fill="#980517"/>
<path id="Vector_2" d="M14.846 25.8985C15.2803 25.8985 15.7546 25.7374 16.038 25.3973L19.8791 20.7683L21.819 21.5214V26.4871L20.5723 29.6375C20.1462 30.7142 20.9641 31.9175 22.122 31.9175H23.1567C24.3146 31.9175 25.1327 30.7143 24.7064 29.6375L23.4597 26.4871V22.1581L27.5737 23.755C27.6704 23.7925 27.7709 23.8106 27.8703 23.8106C28.1111 23.8106 28.3459 23.7044 28.505 23.5102C28.7299 23.2359 28.7529 22.8481 28.5621 22.549L18.665 7.03735C18.5712 6.89024 18.4329 6.77693 18.2703 6.71382L1.11711 0.0556575C0.78625 -0.072748 0.410659 0.026017 0.185894 0.300437C-0.0389794 0.574748 -0.0620574 0.96259 0.128801 1.26162L4.58701 8.24911L0.829453 12.7774C0.829234 12.7776 0.829016 12.7779 0.828797 12.7781C-0.0223545 13.8038 1.06242 15.4436 1.95229 16.5879C4.57979 19.9662 8.28157 23.0376 12.0856 24.9965C12.9207 25.4266 13.9754 25.8985 14.846 25.8985ZM23.1784 30.2654C23.1706 30.2768 23.1645 30.2768 23.1567 30.2768H22.122C22.1013 30.2735 22.0933 30.2616 22.0977 30.2411L22.6394 28.8725L23.181 30.2411C23.1838 30.2483 23.1861 30.2539 23.1784 30.2654ZM23.4597 20.3982V17.6023L25.8309 21.3187L23.4597 20.3982ZM17.4264 8.14608L21.819 15.0309V19.7613L20.5481 19.2679C20.4665 18.3611 19.748 17.3159 19.1244 16.5139C18.013 15.085 16.3508 13.4266 14.4439 11.8444C12.537 10.2619 10.6005 8.93412 8.99119 8.10539C8.04171 7.61627 6.80851 7.07399 5.88463 7.23215L2.85988 2.49197L17.4264 8.14608ZM2.21479 13.9283C5.27147 14.3986 8.51913 17.5023 10.6655 19.4717C11.4471 20.1886 12.5561 18.9799 11.7748 18.2628C9.33014 16.02 6.41291 13.5317 3.19686 12.4935L6.22719 8.84159C6.89864 8.79368 9.61506 9.96957 13.3961 13.1071C17.1776 16.2448 18.8313 18.6963 18.9107 19.3662L15.8803 23.0183C15.6047 22.5111 15.2458 22.0152 14.9138 21.5883C14.2626 20.751 12.9676 21.7584 13.6187 22.5955C14.2851 23.4524 14.542 23.9707 14.641 24.2465C13.7199 24.0984 11.149 22.8732 7.68055 19.9952C4.19895 17.1059 2.52104 14.7989 2.21479 13.9283Z" fill="#980517"/>
<path id="Vector_3" d="M44.8936 32.9601L25.3516 32.5558C25.1763 32.5528 25.0061 32.6041 24.8634 32.7044L8.86398 43.9328C8.22874 44.3784 8.54242 45.4084 9.31821 45.4243L13.4445 45.5098L13.5112 50.5169L12.194 53.6599C11.7448 54.7315 12.5411 55.9551 13.7029 55.9784L14.7445 55.9992C15.8786 56.0315 16.7384 54.7979 16.3451 53.743L15.1524 50.5437L15.0856 45.5437L18.1621 45.6073L20.0295 51.7391C20.1258 52.0556 20.4029 52.2832 20.732 52.3162C27.5316 53.0018 34.4494 50.8945 39.7128 46.5357C39.9675 46.3247 40.0707 45.9814 39.9743 45.665L38.107 39.5332L45.3478 34.4517C45.9831 34.0061 45.6694 32.9761 44.8936 32.9601ZM14.804 54.3455C14.7942 54.3592 14.7852 54.359 14.7773 54.3589L13.736 54.3381C13.7108 54.3335 13.7012 54.3189 13.7072 54.294L14.2854 52.9144L14.8079 54.316C14.8107 54.3238 14.8137 54.3318 14.804 54.3455ZM34.0927 40.3511C33.2253 40.9615 34.1694 42.303 35.0368 41.6929L36.6946 40.5264L38.2441 45.6145C35.8792 47.4859 33.2174 48.8798 30.3247 49.7608C27.4316 50.6418 24.4449 50.9679 21.4382 50.7326L19.8887 45.6446L28.8632 45.8414C29.0386 45.8446 29.21 45.7929 29.3532 45.6922L31.4711 44.2019C32.3386 43.5914 31.3944 42.25 30.527 42.8601L28.6463 44.1835L11.8579 43.836L14.0712 42.2827L27.246 40.0006C28.2911 39.8196 28.0112 38.2029 26.9659 38.3841L17.2211 40.0721L25.586 34.2016L42.3539 34.5487L34.0927 40.3511Z" fill="#980517"/>
<path id="Vector_4" d="M36.5312 54.3594C35.4755 54.3594 35.4738 56 36.5312 56C37.5869 56 37.5886 54.3594 36.5312 54.3594Z" fill="#980517"/>
<path id="Vector_5" d="M46.5234 42.7109C45.4677 42.7109 45.4659 44.3516 46.5234 44.3516C47.5791 44.3516 47.5808 42.7109 46.5234 42.7109Z" fill="#980517"/>
<path id="Vector_6" d="M55.2075 49.8652C54.1518 49.8652 54.15 51.5059 55.2075 51.5059C56.263 51.5059 56.2648 49.8652 55.2075 49.8652Z" fill="#980517"/>
<path id="Vector_7" d="M14.3339 31.918C15.3896 31.918 15.3914 30.2773 14.3339 30.2773C13.2782 30.2773 13.2765 31.918 14.3339 31.918Z" fill="#980517"/>
<path id="Vector_8" d="M0.792422 21.9844C-0.263266 21.9844 -0.265016 23.625 0.792422 23.625C1.84811 23.625 1.84986 21.9844 0.792422 21.9844Z" fill="#980517"/>
<path id="Vector_9" d="M3.17182 50.2578C2.11613 50.2578 2.11438 51.8984 3.17182 51.8984C4.2275 51.8984 4.22925 50.2578 3.17182 50.2578Z" fill="#980517"/>
<path id="Vector_10" d="M4.81244 36.6953C3.75675 36.6953 3.755 38.3359 4.81244 38.3359C5.86813 38.3359 5.86988 36.6953 4.81244 36.6953Z" fill="#980517"/>
<path id="Vector_11" d="M51.4062 34.7266C50.3505 34.7266 50.3488 36.3672 51.4062 36.3672C52.4619 36.3672 52.4636 34.7266 51.4062 34.7266Z" fill="#980517"/>
<path id="Vector_12" d="M30.078 27.9453C31.1337 27.9453 31.1354 26.3047 30.078 26.3047C29.0224 26.3047 29.0207 27.9453 30.078 27.9453Z" fill="#980517"/>
<path id="Vector_13" d="M26.578 11.3613C27.6337 11.3613 27.6354 9.7207 26.578 9.7207C25.5224 9.7207 25.5207 11.3613 26.578 11.3613Z" fill="#980517"/>
<path id="Vector_14" d="M19.4686 1.64062C20.5243 1.64062 20.526 0 19.4686 0C18.413 0 18.4113 1.64062 19.4686 1.64062Z" fill="#980517"/>
<path id="Vector_15" d="M33.4686 5.19531C34.5243 5.19531 34.526 3.55469 33.4686 3.55469C32.413 3.55469 32.4113 5.19531 33.4686 5.19531Z" fill="#980517"/>
</g>
</g>
<defs>
<clipPath id="clip0_47419_460">
<rect width="56" height="56" fill="white"/>
</clipPath>
</defs>
</svg>
