<svg width="56" height="44" viewBox="0 0 56 44" fill="none" xmlns="http://www.w3.org/2000/svg">
<path d="M55.6486 15.0523L54.1899 12.5257C53.8879 12.0027 53.2195 11.8234 52.6959 12.1254C52.1728 12.4274 51.9935 13.0963 52.2956 13.6194L53.7543 16.146C53.8313 16.2792 53.8141 16.4061 53.7971 16.4698C53.78 16.5336 53.7313 16.6522 53.5981 16.7291L49.7408 18.9561C49.5367 19.0735 49.2753 19.0034 49.1576 18.7998L41.3977 5.35955C41.28 5.15568 41.3501 4.89406 41.554 4.77627L45.4112 2.54936C45.6151 2.43189 45.8769 2.50167 45.9945 2.70554L47.3739 5.09476C47.676 5.61799 48.3449 5.79725 48.8679 5.49506C49.391 5.19308 49.5703 4.52417 49.2682 4.00104L47.8888 1.61182C47.1682 0.363564 45.5663 -0.065938 44.3176 0.65493L40.4603 2.88195C39.8743 3.22035 39.4688 3.75288 39.278 4.3518H28.343C26.8078 4.3518 25.3644 4.94962 24.2787 6.03525L23.1583 7.15565C22.1759 6.92148 21.1694 6.80107 20.1573 6.80107H16.762C16.5923 6.14582 16.1709 5.55609 15.5399 5.19166L11.6825 2.96464C11.0777 2.61542 10.3729 2.52278 9.69866 2.70346C9.02416 2.88414 8.46035 3.31682 8.11124 3.92153L0.351431 17.3619C0.00231724 17.9666 -0.0905393 18.6712 0.0901426 19.3458C0.270824 20.0204 0.703498 20.5841 1.30832 20.9332L5.16564 23.1602C5.57633 23.3973 6.02508 23.51 6.46837 23.51C6.62991 23.51 6.79057 23.4943 6.94851 23.465L10.1056 26.6223C10.0573 26.8704 10.0322 27.1249 10.0322 27.3835C10.0322 28.4344 10.4415 29.4226 11.1847 30.1657C11.8963 30.8771 12.8148 31.2581 13.7482 31.3096C13.7339 31.4467 13.7262 31.5852 13.7262 31.725C13.7262 32.7761 14.1354 33.7641 14.8786 34.5072C15.6218 35.2504 16.6098 35.6596 17.6608 35.6596C17.6893 35.6596 17.7176 35.6582 17.746 35.6576C17.7453 35.686 17.7439 35.7142 17.7439 35.7428C17.7439 36.7938 18.1532 37.7819 18.8964 38.5249C19.6395 39.2681 20.6276 39.6774 21.6786 39.6774C21.7071 39.6774 21.7353 39.676 21.7638 39.6753C21.7631 39.7038 21.7617 39.732 21.7617 39.7605C21.7617 40.8115 22.171 41.7996 22.9141 42.5427C23.6573 43.2858 24.6454 43.6952 25.6963 43.6952C26.7473 43.6952 27.7355 43.2859 28.4785 42.5427L30.0344 40.9869C30.4906 40.5307 30.81 39.9891 30.9949 39.4134C31.6862 39.9235 32.5076 40.1786 33.3293 40.1785C34.3367 40.1784 35.3445 39.795 36.1115 39.028C36.5704 38.569 36.9014 38.0166 37.088 37.4138C37.7212 37.8278 38.4608 38.0505 39.2349 38.0505C40.2858 38.0505 41.274 37.6412 42.0171 36.898C42.5693 36.3457 42.9368 35.6582 43.0894 34.9101C43.4844 35.0409 43.9018 35.1099 44.33 35.1099C45.3809 35.1099 46.3692 34.7007 47.1123 33.9574C48.6463 32.4232 48.6463 29.927 47.1123 28.3929L44.5595 25.8401L49.2191 21.1806C49.3226 21.1929 49.4268 21.1999 49.5315 21.1999C49.9747 21.1999 50.4236 21.0873 50.8342 20.8503L54.6915 18.6234C55.2962 18.2741 55.7289 17.7104 55.9097 17.0358C56.0905 16.3612 55.9977 15.657 55.6486 15.0523ZM2.40193 19.0389C2.26872 18.962 2.22015 18.8435 2.20309 18.7797C2.18603 18.7159 2.16886 18.589 2.24586 18.4557L10.0057 5.01525C10.0825 4.88203 10.2011 4.83347 10.2649 4.81641C10.2921 4.80919 10.3308 4.80186 10.3765 4.80186C10.4381 4.80186 10.5124 4.8151 10.5887 4.85906L14.446 7.08609C14.6498 7.20377 14.72 7.46539 14.6023 7.66926L6.84253 21.1096C6.72473 21.3134 6.46333 21.3836 6.25936 21.2659L2.40193 19.0389ZM12.2197 27.3834C12.2197 26.9166 12.4014 26.4779 12.7315 26.1478L13.6754 25.2039C14.016 24.8632 14.4634 24.6929 14.911 24.6929C15.3583 24.6929 15.8059 24.8633 16.1464 25.2039C16.4765 25.534 16.6583 25.9727 16.6583 26.4394C16.6583 26.9061 16.4765 27.3449 16.1464 27.6749L15.2026 28.6187C14.5213 29.3001 13.4128 29.3 12.7315 28.6187C12.4014 28.2889 12.2197 27.8501 12.2197 27.3834ZM17.6609 33.4722C17.1941 33.4722 16.7554 33.2904 16.4254 32.9604C16.0954 32.6305 15.9136 32.1917 15.9136 31.725C15.9136 31.2583 16.0954 30.8195 16.4254 30.4895L17.9813 28.9337C18.3218 28.5931 18.7693 28.4228 19.2167 28.4228C19.6643 28.4228 20.1117 28.5931 20.4523 28.9337C20.7824 29.2637 20.9641 29.7025 20.9641 30.1692C20.9641 30.6359 20.7824 31.0747 20.4523 31.4046L18.8965 32.9604C18.5664 33.2905 18.1276 33.4722 17.6609 33.4722ZM21.6787 37.4901C21.2119 37.4901 20.7732 37.3083 20.4432 36.9783C20.1131 36.6483 19.9314 36.2096 19.9314 35.7429C19.9314 35.2762 20.1131 34.8374 20.4432 34.5073L21.999 32.9515C22.3396 32.6109 22.787 32.4406 23.2345 32.4406C23.6819 32.4406 24.1295 32.6109 24.4701 32.9516C24.8001 33.2816 24.9819 33.7204 24.9819 34.187C24.9819 34.6537 24.8001 35.0925 24.4701 35.4225L22.9142 36.9783C22.5843 37.3083 22.1455 37.4901 21.6787 37.4901ZM28.4878 39.4403L26.9319 40.9962C26.6019 41.3262 26.1632 41.5079 25.6964 41.5079C25.2296 41.5079 24.7909 41.3262 24.461 40.9962C24.1309 40.6661 23.9491 40.2274 23.9491 39.7607C23.9491 39.2939 24.1309 38.8552 24.461 38.5252L26.0168 36.9694C26.3574 36.6287 26.8048 36.4584 27.2524 36.4584C27.6997 36.4584 28.1472 36.6288 28.4878 36.9692C29.1691 37.6504 29.1691 38.759 28.4878 39.4403ZM45.5658 32.4109C45.2357 32.7409 44.797 32.9227 44.3302 32.9227C43.8635 32.9227 43.4248 32.7409 43.0947 32.4109L32.6552 21.9713C32.2281 21.5444 31.5358 21.5442 31.1084 21.9713C30.6813 22.3984 30.6813 23.091 31.1084 23.5181L40.4706 32.8804C40.8007 33.2104 40.9824 33.6492 40.9824 34.1158C40.9824 34.5825 40.8007 35.0213 40.4706 35.3514C40.1406 35.6814 39.7019 35.8632 39.2351 35.8632C38.7683 35.8632 38.3296 35.6814 37.9996 35.3514L26.7496 24.1014C26.3225 23.6744 25.6299 23.6744 25.2027 24.1014C24.7756 24.5285 24.7756 25.221 25.2027 25.6481L34.5649 35.0104C34.895 35.3404 35.0768 35.7792 35.0768 36.2459C35.0768 36.7126 34.895 37.1513 34.5649 37.4813C33.8838 38.1626 32.7753 38.1628 32.0939 37.4813L30.0349 35.4223C30.032 35.4195 30.0289 35.417 30.026 35.4143C29.2383 34.6313 28.1993 34.2519 27.1673 34.2741C27.1679 34.2451 27.1693 34.2163 27.1693 34.187C27.1693 33.1361 26.7601 32.1479 26.0169 31.4047C25.2282 30.6161 24.1853 30.234 23.1494 30.2562C23.15 30.2273 23.1515 30.1984 23.1515 30.1693C23.1515 29.1182 22.7422 28.1302 21.999 27.387C21.1365 26.5245 19.9699 26.147 18.8411 26.2543C18.796 25.2729 18.3925 24.3566 17.6932 23.6573C16.159 22.1231 13.6627 22.1235 12.1286 23.6573L11.1847 24.6012C11.1836 24.6023 11.1825 24.6035 11.1814 24.6046L8.7527 22.1759L16.3664 8.9885H20.1572C20.5286 8.9885 20.8991 9.00819 21.2674 9.04646L20.0172 10.2967C19.274 11.0399 18.8648 12.028 18.8648 13.079C18.8648 14.1301 19.274 15.1181 20.0172 15.8613C20.7843 16.6283 21.792 17.0119 22.7994 17.0119C23.807 17.0119 24.8147 16.6284 25.5817 15.8613L28.5343 12.9087L45.5656 29.9399C46.2469 30.6211 46.2469 31.7297 45.5658 32.4109ZM35.0576 16.3382C36.6491 15.1863 37.6247 13.3274 37.6247 11.3078C37.6247 10.7038 37.135 10.2141 36.531 10.2141C35.9271 10.2141 35.4373 10.7038 35.4373 11.3078C35.4373 12.7366 34.6826 14.0397 33.4786 14.7593L29.3128 10.5935C28.8856 10.1664 28.1943 10.1553 27.7671 10.5824L24.035 14.3145C23.3537 14.9957 22.2452 14.9956 21.5639 14.3145C21.2339 13.9845 21.0521 13.5457 21.0521 13.079C21.0521 12.6123 21.2339 12.1735 21.5639 11.8434L25.8254 7.58198C26.4978 6.90956 27.3919 6.53923 28.343 6.53923H39.5531L47.2632 19.8937C47.2815 19.9253 47.3014 19.9554 47.3207 19.9859L43.013 24.2936L35.0576 16.3382Z" fill="#980517"/>
</svg>
