<svg width="56" height="56" viewBox="0 0 56 56" fill="none" xmlns="http://www.w3.org/2000/svg">
<g id="icon" clip-path="url(#clip0_46423_15093)">
<path id="Vector" d="M32.2045 45.8416C31.7399 45.7098 31.2558 45.9801 31.1242 46.4451C29.6993 51.477 27.8367 53.648 26.7118 53.537C25.3308 53.4 23.8604 49.8747 23.6808 44.0687C25.0616 44.4273 26.509 44.6184 28.0004 44.6184C32.5923 44.6184 36.9102 42.8299 40.1572 39.5828C43.4042 36.3357 45.1928 32.0181 45.1928 27.4259C45.1928 26.48 45.1148 25.5522 44.9672 24.6474C46.9118 23.4818 48.6203 22.2398 49.9723 20.9959C52.6045 18.5744 53.6002 16.4197 52.8517 14.7647C51.8524 12.556 48.0722 12.1001 42.4803 13.5141C42.0118 13.6326 41.728 14.1085 41.8465 14.5769C41.965 15.0455 42.4411 15.3293 42.9093 15.2108C47.9792 13.9288 50.7907 14.4548 51.2572 15.486C51.8291 16.7504 49.511 19.7869 44.5723 22.8456C42.5623 15.582 35.8946 10.2332 28.0003 10.2332C23.8745 10.2332 20.084 11.6945 17.1178 14.1259C15.1335 13.0226 13.2009 12.1619 11.4456 11.6123C8.0322 10.5435 5.6685 10.7585 4.60953 12.2343C3.19641 14.2039 4.69178 17.7055 8.71219 21.8414C8.88369 22.0179 9.11152 22.1065 9.33967 22.1065C9.55941 22.1065 9.77947 22.0243 9.94944 21.8589C10.2959 21.522 10.3038 20.968 9.96694 20.6217C6.3218 16.8717 5.37155 14.1741 6.03141 13.2546C6.84111 12.1264 10.6338 12.617 15.7566 15.369C12.6981 18.4744 10.8076 22.7333 10.8076 27.4259C10.8076 34.7673 15.4336 41.0478 21.9233 43.5082C21.9603 45.7752 22.1813 47.8764 22.5825 49.6693C23.3635 53.1596 24.7317 55.0993 26.5391 55.2784C26.6274 55.2872 26.7152 55.2916 26.803 55.2916C29.1174 55.2916 31.2937 52.2688 32.8078 46.922C32.9395 46.457 32.6692 45.9734 32.2043 45.8417L32.2045 45.8416ZM27.3012 40.0457C26.834 39.8743 26.6159 39.6316 26.5712 39.4758C26.5266 39.3205 26.6321 39.1289 26.738 38.9859C27.6851 38.0017 28.9969 38.5622 30.8824 39.5273C31.052 39.6142 31.2193 39.6998 31.3834 39.7817C32.7324 40.4551 33.5171 40.1252 34.0901 39.8846C34.5267 39.7011 34.9438 39.5271 36.2747 40.4705C34.4493 41.6334 32.4038 42.394 30.2489 42.7064C29.5197 41.5195 28.1866 40.3704 27.3012 40.0457ZM40.1043 17.847C39.4444 19.0715 39.1178 20.7944 39.279 21.7212C39.3642 22.2116 39.263 22.5217 39.1505 22.6384C39.0383 22.7547 38.8195 22.7592 38.6429 22.7388C37.3167 22.4103 37.1463 20.9941 37.0395 18.8789C37.0299 18.6886 37.0204 18.5009 37.0094 18.3178C36.918 16.8133 36.2401 16.2983 35.745 15.9223C35.3686 15.6363 35.0101 15.3623 35.1593 13.7462C37.081 14.7561 38.7653 16.1585 40.1043 17.8469V17.847ZM13.3359 22.5842C15.4412 21.5878 17.4317 21.0771 18.7106 21.2128C19.3793 21.2839 20.0045 21.6684 20.2308 22.1475C20.3716 22.4455 20.3355 22.7491 20.1203 23.0759C19.9646 23.3126 19.7241 23.5717 19.4694 23.8461C18.8192 24.547 18.0097 25.4193 17.7419 26.7823C17.5712 27.6505 17.4071 27.8355 17.1253 27.9033C16.9773 27.9387 16.7036 27.9613 16.2369 27.8667C15.4303 27.7031 14.6946 27.9025 14.219 28.414C13.723 28.9473 13.576 29.7452 13.8158 30.6032C13.9995 31.2593 14.6105 31.7345 15.2434 32.1505C15.4855 32.3096 15.7792 32.4692 16.0903 32.6381C17.0412 33.1547 18.3438 33.862 18.3436 34.7166C18.3436 35.0064 18.2967 35.1372 18.2766 35.1801C18.0542 35.2362 17.4787 35.0376 16.5658 34.5903C15.5621 34.0987 14.7121 33.8771 13.9916 33.9199C13.0722 31.9446 12.5576 29.7443 12.5576 27.4257C12.5576 25.7352 12.8315 24.1077 13.3358 22.5841L13.3359 22.5842ZM15.064 35.8496C15.2752 35.9245 15.5167 36.0252 15.7959 36.1619C16.4618 36.488 17.3683 36.9322 18.2149 36.9321C18.5657 36.9321 18.9064 36.8557 19.2153 36.6632C19.7979 36.2999 20.0934 35.6451 20.0936 34.7168C20.0939 32.8211 18.1872 31.7856 16.9256 31.1002C16.6477 30.9493 16.3852 30.8067 16.2044 30.6879C15.6575 30.3285 15.5244 30.1574 15.4954 30.1105C15.411 29.7925 15.4699 29.6385 15.5004 29.6056C15.5327 29.5708 15.6628 29.5356 15.8892 29.5817C16.5246 29.7106 17.0626 29.718 17.5342 29.6047C19.0419 29.2426 19.3236 27.8088 19.459 27.1197C19.631 26.2448 20.1757 25.6579 20.7523 25.0365C21.0444 24.7217 21.3464 24.3962 21.5822 24.038C22.1368 23.1954 22.2188 22.2586 21.8131 21.4C21.3245 20.3657 20.1793 19.6092 18.8958 19.4726C17.4273 19.3164 15.7384 19.747 14.3183 20.2713C15.1035 18.7757 16.1262 17.4234 17.3368 16.266C18.373 16.8855 19.4522 17.5908 20.5631 18.3879C21.5399 19.0887 22.4827 19.8219 23.3717 20.5711C22.9792 21.4185 22.9896 22.4372 23.4909 23.3055C24.04 24.2565 25.0395 24.7887 26.066 24.7887C26.5691 24.7887 27.0787 24.6609 27.5448 24.3918C28.9619 23.5737 29.4491 21.7551 28.631 20.338C27.813 18.9209 25.9942 18.4336 24.5772 19.2518C24.5662 19.2582 24.5558 19.2652 24.5449 19.2716C23.6079 18.4798 22.6136 17.7054 21.5835 16.9662C20.6404 16.2895 19.6882 15.6582 18.7399 15.0758C21.3218 13.1349 24.529 11.9833 28.0005 11.9833C29.9318 11.9833 31.7809 12.3408 33.4865 12.9912C33.1109 15.8512 33.7794 16.6271 34.6866 17.3161C35.0529 17.5943 35.22 17.7214 35.2626 18.424C35.2735 18.6014 35.2827 18.7831 35.292 18.9674C35.3954 21.0175 35.5373 23.8253 38.2915 24.4542C38.3164 24.4598 38.3415 24.4644 38.3668 24.4679C38.5202 24.489 38.6647 24.4988 38.8008 24.4987C39.6033 24.4987 40.112 24.1622 40.4096 23.8539C40.957 23.2869 41.1734 22.4003 41.0033 21.4216C40.944 21.0807 41.0382 20.2986 41.2772 19.5476C42.0495 20.8441 42.6371 22.2627 43.004 23.767C41.9474 24.3559 40.7946 24.9392 39.546 25.5042C38.4499 26 37.3437 26.4498 36.2511 26.8449C35.7136 26.0812 34.826 25.5808 33.8234 25.5808C32.187 25.5808 30.8558 26.912 30.8558 28.5484C30.8558 30.1848 32.187 31.516 33.8234 31.516C35.4597 31.516 36.791 30.1848 36.791 28.5484C36.791 28.5357 36.7903 28.5231 36.7901 28.5104C37.9436 28.0951 39.1113 27.6214 40.2672 27.0985C41.3266 26.6193 42.3522 26.11 43.3323 25.5791C43.4048 26.1848 43.4431 26.8009 43.4431 27.4259C43.4431 31.5507 41.8367 35.4286 38.92 38.3454C38.5485 38.717 38.1611 39.067 37.7598 39.3954C35.4697 37.6391 34.4631 37.8301 33.4127 38.2712C32.9886 38.4492 32.7951 38.5306 32.1652 38.2162C32.0062 38.1368 31.8442 38.0538 31.68 37.9697C29.8527 37.0345 27.3503 35.7531 25.4285 37.824C25.4112 37.8428 25.3946 37.8622 25.379 37.8825C24.7238 38.7256 24.751 39.4768 24.8891 39.9585C25.1064 40.716 25.766 41.3467 26.6988 41.6888C27.0243 41.8081 27.6562 42.2823 28.1877 42.8662C28.1253 42.867 28.0629 42.8685 28.0005 42.8685C26.4967 42.8685 25.0427 42.6515 23.6674 42.2488C23.6855 41.0393 23.7567 39.7493 23.8919 38.3855C24.0105 37.1884 24.1763 36.0069 24.3807 34.8625C24.5494 34.8471 24.7179 34.8186 24.8848 34.7739C25.6505 34.5687 26.2905 34.0777 26.6868 33.3912C27.0831 32.7048 27.1885 31.905 26.9833 31.1394C26.7782 30.3737 26.2871 29.7337 25.6006 29.3374C24.914 28.9409 24.1142 28.8356 23.3487 29.0409C22.5831 29.246 21.9431 29.7371 21.5467 30.4235C21.1504 31.1101 21.0451 31.9098 21.2503 32.6754C21.4554 33.4411 21.9465 34.0811 22.633 34.4774C22.6446 34.4841 22.6567 34.4897 22.6684 34.4963C22.4511 35.7036 22.2755 36.9504 22.1504 38.2128C22.0357 39.37 21.965 40.5122 21.9349 41.6265C19.1151 40.4174 16.7255 38.3923 15.0641 35.8496H15.064ZM25.452 20.7672C25.6433 20.6568 25.8523 20.6044 26.0588 20.6044C26.48 20.6044 26.8902 20.8228 27.1154 21.2129C27.451 21.7944 27.251 22.5405 26.6697 22.8762C26.0883 23.212 25.3421 23.012 25.0063 22.4305C24.6708 21.8491 24.8707 21.1029 25.452 20.7672ZM35.0407 28.5483C35.0407 29.2196 34.4945 29.7658 33.823 29.7658C33.1516 29.7658 32.6055 29.2196 32.6055 28.5483C32.6055 27.8769 33.1517 27.3307 33.823 27.3307C34.4944 27.3307 35.0407 27.8769 35.0407 28.5483ZM23.5079 32.9618C22.9265 32.6261 22.7265 31.88 23.0622 31.2984C23.2248 31.0168 23.4874 30.8153 23.8016 30.7311C23.9065 30.703 24.013 30.6891 24.1186 30.6891C24.3296 30.6891 24.5379 30.7444 24.7255 30.8528C25.0071 31.0155 25.2087 31.278 25.2929 31.5921C25.3771 31.9063 25.3338 32.2344 25.1713 32.5161C24.8354 33.0973 24.0891 33.2975 23.5079 32.9618ZM18.2174 7.13364C16.9615 8.43663 16.3349 10.2901 16.645 12.1718C16.7157 12.6004 17.0867 12.9046 17.5074 12.9046C17.5547 12.9046 17.6025 12.9008 17.6508 12.8929C18.1275 12.8143 18.4505 12.3641 18.3719 11.8872C18.0499 9.93353 19.164 8.02188 21.0212 7.34178C22.8783 6.66169 24.9633 7.40194 25.9792 9.10163C26.2272 9.51649 26.7645 9.65167 27.1792 9.40383C27.594 9.15588 27.7293 8.61863 27.4815 8.20388C26.5035 6.5673 24.8288 5.55678 23.029 5.37259C23.322 4.62294 23.3544 3.76817 23.0566 2.95475C22.7425 2.09703 22.1131 1.41289 21.2846 1.02855C20.4559 0.644095 19.5273 0.605376 18.6696 0.919392C16.899 1.56777 15.986 3.53575 16.6343 5.30631C16.9322 6.11995 17.5098 6.75039 18.2178 7.13353L18.2174 7.13364ZM19.2711 2.56275C19.4584 2.49417 19.6525 2.46005 19.8462 2.46005C20.0855 2.46005 20.3242 2.51222 20.548 2.61602C20.9525 2.8037 21.2598 3.13774 21.4131 3.55653C21.7297 4.42103 21.2838 5.38189 20.4193 5.69842C20.0003 5.85166 19.547 5.83285 19.1424 5.64516C18.7379 5.45747 18.4306 5.12344 18.2774 4.70475C17.9607 3.84025 18.4066 2.87928 19.2711 2.56275ZM28.8215 9.40383C29.2361 9.65178 29.7737 9.51649 30.0215 9.10152C31.0373 7.40161 33.1225 6.66169 34.9795 7.34167C36.8365 8.02177 37.9507 9.93331 37.6287 11.8871C37.5501 12.3638 37.873 12.8141 38.3499 12.8928C38.398 12.9007 38.4459 12.9045 38.4932 12.9045C38.9139 12.9045 39.2848 12.6003 39.3556 12.1717C39.6657 10.29 39.0391 8.43652 37.7832 7.13353C38.4912 6.75028 39.0688 6.11984 39.3667 5.30631C40.015 3.53575 39.1019 1.56766 37.3314 0.919392C36.4734 0.605158 35.5448 0.643986 34.7163 1.02855C33.8878 1.413 33.2584 2.09703 32.9444 2.95475C32.6466 3.76817 32.679 4.62305 32.972 5.3727C31.1722 5.557 29.4975 6.56741 28.5196 8.20399C28.2716 8.61874 28.407 9.1561 28.8219 9.40394L28.8215 9.40383ZM34.5875 3.55642C34.7407 3.13763 35.048 2.8037 35.4525 2.61591C35.6763 2.51211 35.9148 2.45994 36.1543 2.45994C36.348 2.45994 36.5421 2.49406 36.7294 2.56264C37.5939 2.87917 38.0397 3.84014 37.7233 4.70464C37.5699 5.12344 37.2626 5.45736 36.858 5.64505C36.4535 5.83274 36 5.85177 35.5812 5.69831C34.7167 5.38167 34.2709 4.42092 34.5875 3.55642ZM52.8393 28.642C51.986 28.4936 51.1506 28.6772 50.4648 29.0985C49.9642 27.3599 48.6725 25.891 46.8883 25.2189C46.4362 25.0485 45.9314 25.277 45.761 25.7293C45.5906 26.1815 45.8191 26.6862 46.2713 26.8566C48.1243 27.5546 49.2227 29.4753 48.8832 31.4236C48.5436 33.3719 46.86 34.8076 44.8801 34.8375C44.3969 34.8447 44.0111 35.2424 44.0183 35.7256C44.0255 36.2042 44.4159 36.5873 44.893 36.5873H44.9063C46.812 36.5587 48.5239 35.6142 49.5834 34.1485C50.1043 34.8005 50.8353 35.2353 51.6646 35.3798C51.8625 35.4143 52.0592 35.4309 52.2536 35.4309C53.8837 35.4309 55.3315 34.258 55.6208 32.5982C55.9446 30.7406 54.6969 28.966 52.8393 28.642ZM53.897 32.2977C53.7389 33.2046 52.8732 33.814 51.9653 33.6558C51.5259 33.5791 51.1427 33.3361 50.8862 32.9712C50.6297 32.6063 50.5306 32.1635 50.6072 31.7241C50.7485 30.9136 51.4553 30.3409 52.2512 30.3409C52.346 30.3409 52.4422 30.349 52.5387 30.3659C53.4457 30.524 54.055 31.3907 53.897 32.2977ZM44.6139 42.7562C45.3534 41.1058 45.3153 39.151 44.3874 37.4863C44.152 37.0641 43.6189 36.9128 43.1971 37.148C42.7751 37.3833 42.6236 37.9161 42.8588 38.3383C43.8229 40.0679 43.4214 42.2438 41.904 43.5121C40.3865 44.7803 38.1738 44.7895 36.6427 43.5337C36.2693 43.2274 35.7179 43.2817 35.4113 43.6554C35.1048 44.029 35.1593 44.5804 35.5329 44.8868C36.6162 45.7754 37.9389 46.219 39.2612 46.219C39.7376 46.219 40.2138 46.1602 40.679 46.045C40.6557 46.8792 40.9331 47.6832 41.4729 48.3291C42.1485 49.1373 43.1206 49.5543 44.0997 49.5543C44.8733 49.5543 45.6513 49.2938 46.2898 48.76C47.7366 47.5508 47.9299 45.3898 46.7207 43.943C46.1808 43.2972 45.4388 42.8814 44.6137 42.7563L44.6139 42.7562ZM45.1677 47.417C44.4613 48.0074 43.4063 47.913 42.8159 47.2067C42.5298 46.8645 42.3942 46.4314 42.4339 45.9873C42.4736 45.543 42.684 45.1409 43.0263 44.8548C43.3294 44.6015 43.7037 44.4661 44.0941 44.4661C44.1444 44.4661 44.1951 44.4684 44.2458 44.4728C44.6901 44.5125 45.0922 44.723 45.3782 45.0651C45.9686 45.7715 45.8742 46.8266 45.1679 47.417H45.1677ZM19.3575 43.5336C17.8265 44.7895 15.614 44.7802 14.0964 43.512C12.5789 42.2437 12.1774 40.0679 13.1415 38.3383C13.3768 37.9162 13.2255 37.3833 12.8034 37.148C12.3813 36.9127 11.8484 37.0641 11.613 37.4862C10.6851 39.151 10.6469 41.1057 11.3865 42.7561C10.5614 42.8811 9.81939 43.297 9.27952 43.9428C8.07037 45.3895 8.26364 47.5504 9.71023 48.7598C10.349 49.2935 11.1266 49.5541 11.9004 49.5541C12.8793 49.5541 13.8517 49.137 14.5271 48.3289C15.0826 47.6643 15.3413 46.849 15.3193 46.0445C15.7849 46.16 16.2617 46.2188 16.7389 46.2188C18.0611 46.2188 19.3841 45.7751 20.4672 44.8866C20.8408 44.5801 20.8953 44.0288 20.5888 43.6552C20.2823 43.2816 19.731 43.2271 19.3573 43.5335L19.3575 43.5336ZM13.1845 47.2067C12.5943 47.913 11.5394 48.0075 10.8326 47.417C10.1264 46.8265 10.032 45.7715 10.6224 45.0651C10.9083 44.723 11.3105 44.5127 11.7548 44.4728C12.1981 44.4333 12.6321 44.5687 12.9742 44.8548C13.6807 45.4452 13.7749 46.5002 13.1845 47.2067ZM11.094 36.5873H11.1074C11.5845 36.5873 11.9748 36.2042 11.9821 35.7256C11.9893 35.2424 11.6035 34.8448 11.1203 34.8375C9.14039 34.8076 7.45689 33.3719 7.11717 31.4236C6.77767 29.4753 7.87601 27.5545 9.72905 26.8566C10.1813 26.6862 10.4098 26.1815 10.2394 25.7293C10.069 25.277 9.56389 25.0485 9.11206 25.2189C7.32859 25.8908 6.03731 27.3588 5.53616 29.0966C4.82544 28.6592 3.99014 28.4974 3.16108 28.6421C2.26114 28.799 1.47637 29.2968 0.950937 30.0441C0.425609 30.7913 0.222718 31.6984 0.379562 32.5982C0.536405 33.498 1.03428 34.2829 1.78142 34.8084C2.36395 35.218 3.04339 35.4316 3.74109 35.4315C3.93841 35.4315 4.13725 35.4144 4.33566 35.3797C5.16494 35.2351 5.896 34.8005 6.41684 34.1484C7.47636 35.614 9.1883 36.5585 11.0939 36.5872L11.094 36.5873ZM5.1143 32.9713C4.8577 33.3361 4.47445 33.5792 4.0352 33.6558C3.59628 33.7325 3.15309 33.6333 2.78822 33.3768C2.42334 33.1203 2.1802 32.737 2.10364 32.2977C2.02708 31.8582 2.12617 31.4154 2.38266 31.0506C2.63925 30.6858 3.0225 30.4427 3.46175 30.3661C3.55866 30.3491 3.65556 30.3408 3.75203 30.3408C4.09251 30.3408 4.42436 30.4452 4.70873 30.6451C5.07361 30.9016 5.31675 31.2848 5.39331 31.7242C5.46987 32.1636 5.37078 32.6064 5.1143 32.9713Z" fill="#980517"/>
</g>
<defs>
<clipPath id="clip0_46423_15093">
<rect width="56" height="56" fill="white"/>
</clipPath>
</defs>
</svg>
