<svg width="56" height="56" viewBox="0 0 56 56" fill="none" xmlns="http://www.w3.org/2000/svg">
<g clip-path="url(#clip0_47419_377)">
<path d="M28.0024 41.502C32.4511 41.502 36.0703 37.8827 36.0703 33.4341C36.0703 28.9855 32.4511 25.3662 28.0024 25.3662C23.5538 25.3662 19.9346 28.9855 19.9346 33.4341C19.9346 37.8827 23.5538 41.502 28.0024 41.502ZM28.0024 27.0069C31.5465 27.0069 34.4298 29.8901 34.4298 33.4342C34.4298 36.9783 31.5465 39.8615 28.0024 39.8615C24.4584 39.8615 21.5751 36.9783 21.5751 33.4342C21.5751 29.8901 24.4584 27.0069 28.0024 27.0069Z" fill="#980517"/>
<path d="M28.0026 37.8785C30.4531 37.8785 32.4466 35.8849 32.4466 33.4344C32.4466 30.9839 30.453 28.9902 28.0026 28.9902C25.5522 28.9902 23.5586 30.9839 23.5586 33.4344C23.5585 35.8849 25.5521 37.8785 28.0026 37.8785ZM28.0026 30.6309C29.5484 30.6309 30.8061 31.8885 30.8061 33.4345C30.8061 34.9804 29.5484 36.2381 28.0026 36.2381C26.4568 36.2381 25.1991 34.9804 25.1991 33.4345C25.199 31.8885 26.4567 30.6309 28.0026 30.6309Z" fill="#980517"/>
<path d="M27.7759 34.2549H28.2289C28.6819 34.2549 29.0492 33.8877 29.0492 33.4346C29.0492 32.9815 28.6819 32.6143 28.2289 32.6143H27.7759C27.3228 32.6143 26.9556 32.9815 26.9556 33.4346C26.9556 33.8876 27.3228 34.2549 27.7759 34.2549Z" fill="#980517"/>
<path d="M55.2443 25.8436C54.9745 24.4947 53.74 23.5916 52.3771 23.7434L51.4714 23.8391V22.743C51.4714 22.0035 51.1577 21.2939 50.6108 20.7962C50.0639 20.2985 49.3274 20.0523 48.5918 20.1225L31.8423 21.7046C30.8886 20.5894 29.4766 19.9316 28.0025 19.9316C26.505 19.9316 25.123 20.5741 24.162 21.7045L7.41324 20.1226C6.67685 20.0524 5.94112 20.2986 5.39417 20.7963C4.84721 21.2941 4.53354 22.0036 4.53354 22.7431V23.8446L3.62719 23.7439C2.26116 23.5908 1.02911 24.4922 0.756893 25.8379C0.756455 25.8401 0.755908 25.8425 0.755471 25.8448C-0.251824 30.8815 -0.251824 35.9892 0.755471 41.0259C0.75569 41.0272 0.756018 41.0284 0.756237 41.0297C1.00735 42.2779 2.08442 43.1432 3.32806 43.1432C3.42683 43.1432 3.5269 43.1377 3.62752 43.1265L6.34743 42.8241C6.79771 42.774 7.1221 42.3685 7.07201 41.9182C7.02202 41.4681 6.61572 41.1437 6.1661 41.1937L3.44618 41.4961C2.93072 41.5525 2.4659 41.2131 2.3643 40.705C2.36408 40.7038 2.36386 40.7026 2.36353 40.7015C1.39977 35.8806 1.39966 30.9923 2.36321 26.1713C2.36353 26.1694 2.36397 26.1676 2.36441 26.1656C2.46601 25.6575 2.93061 25.3182 3.44618 25.3745L17.0081 26.8806C16.9607 27.3053 16.965 27.7402 17.0279 28.1775C17.0951 28.6442 16.9024 29.1096 16.5247 29.3922C15.2377 30.3557 14.4994 31.8291 14.4994 33.4349C14.4994 35.0407 15.2375 36.5142 16.5246 37.4774C16.9022 37.76 17.095 38.2256 17.0278 38.6921C16.9649 39.1292 16.9606 39.5637 17.0079 39.9883L9.43734 40.8299C8.98707 40.88 8.66268 41.2855 8.71277 41.7358C8.75936 42.1552 9.11459 42.4655 9.52703 42.4655C9.55732 42.4655 9.58795 42.4638 9.61868 42.4604L17.1095 41.6276L12.919 48.8791C12.6424 49.3583 12.6128 49.9456 12.8397 50.4503C13.0667 50.9549 13.5258 51.3225 14.0679 51.4334L18.154 52.2695C18.1724 52.2732 18.1884 52.2826 18.201 52.2966L20.9682 55.4172C21.2968 55.7879 21.7703 55.9982 22.2608 55.9982C22.3182 55.9982 22.376 55.9953 22.4336 55.9894C22.9842 55.9336 23.478 55.6143 23.755 55.1343L28.0024 47.7609L32.2503 55.1351C32.527 55.6144 33.0209 55.9337 33.5715 55.9894C33.6291 55.9953 33.6868 55.9982 33.7442 55.9982C34.2346 55.9982 34.7082 55.7878 35.0367 55.4173L37.8043 52.2963C37.8164 52.2828 37.833 52.2732 37.851 52.2695L41.9371 51.4334C42.4792 51.3224 42.9383 50.9549 43.1652 50.4503C43.3921 49.9456 43.3625 49.3582 43.0858 48.8792L38.9453 41.7058L52.3723 43.1264C52.4729 43.1377 52.5727 43.1431 52.6716 43.1431C53.9161 43.1431 54.9941 42.2763 55.2441 41.0264C55.2445 41.0241 55.2451 41.0217 55.2455 41.0191C56.2518 35.9843 56.2514 30.8785 55.2443 25.8436ZM48.746 21.7558C49.0276 21.7288 49.2976 21.8194 49.5066 22.0097C49.7157 22.1999 49.8308 22.4604 49.8308 22.743V24.0124L38.5038 25.2094C38.2635 24.7282 37.9451 24.2811 37.5506 23.8864C37.1583 23.4941 36.7139 23.1773 36.2359 22.9374L48.746 21.7558ZM6.17408 24.0267V22.7431C6.17408 22.4605 6.28925 22.2 6.49825 22.0098C6.70737 21.8196 6.9774 21.7291 7.25892 21.7559L19.7692 22.9377C19.2911 23.1775 18.8467 23.4944 18.4544 23.8868C18.0405 24.3007 17.7093 24.7722 17.4654 25.2807L6.17408 24.0267ZM16.1401 33.4346C16.1401 32.3508 16.6386 31.356 17.5077 30.7054C18.3661 30.0631 18.8044 29.0047 18.6517 27.9435C18.4972 26.869 18.8481 25.813 19.6144 25.0466C20.3808 24.2803 21.4365 23.929 22.5115 24.084C23.5728 24.2365 24.6309 23.7981 25.2732 22.94C25.9238 22.0708 26.9186 21.5722 28.0024 21.5722C29.0864 21.5722 30.0811 22.0708 30.7317 22.94C31.3742 23.7982 32.432 24.2362 33.4935 24.084C34.5684 23.929 35.6242 24.2803 36.3904 25.0466C37.1569 25.813 37.5078 26.869 37.3532 27.9435C37.2004 29.0047 37.6389 30.063 38.4972 30.7053C39.3664 31.356 39.865 32.3508 39.865 33.4346C39.865 34.5185 39.3664 35.5133 38.4972 36.1639C37.6389 36.8063 37.2006 37.8647 37.3532 38.9257C37.4546 39.6301 37.3373 40.326 37.0296 40.9381C37.0287 40.9399 37.0277 40.9418 37.0268 40.9436C36.8654 41.2632 36.653 41.5601 36.3904 41.8226C35.9247 42.2883 35.3517 42.5997 34.7328 42.7384C34.7092 42.7425 34.6856 42.7478 34.6621 42.754C34.2842 42.8303 33.8901 42.8425 33.4933 42.7852C32.4321 42.6325 31.3741 43.0711 30.7315 43.9292C30.0811 44.7984 29.0863 45.297 28.0023 45.297C26.9184 45.297 25.9237 44.7984 25.2731 43.9292C24.7153 43.184 23.8438 42.7553 22.9292 42.7553C22.7906 42.7553 22.6509 42.7652 22.5113 42.7852C22.1143 42.8424 21.7201 42.83 21.3419 42.7538C21.3188 42.7476 21.2958 42.7424 21.2725 42.7384C20.6533 42.5998 20.0801 42.2883 19.6142 41.8224C19.3531 41.5614 19.1416 41.2663 18.9806 40.9488C18.9797 40.9469 18.9786 40.9449 18.9778 40.9431C18.668 40.3297 18.55 39.632 18.6516 38.9254C18.8043 37.8644 18.366 36.8062 17.5076 36.1636C16.6386 35.5133 16.1401 34.5186 16.1401 33.4346ZM14.3359 49.7773C14.3179 49.7373 14.3344 49.7086 14.3396 49.6995L18.3097 42.8294C18.3573 42.8809 18.4045 42.9326 18.4544 42.9826C18.8872 43.4154 19.3825 43.7582 19.9176 44.0048L16.3284 50.2215L14.3968 49.8262C14.3862 49.824 14.3538 49.8173 14.3359 49.7773ZM18.0226 50.5681L21.5593 44.4423C21.9487 44.4769 22.346 44.4668 22.745 44.4093C23.0965 44.3587 23.4469 44.4557 23.7193 44.6677L19.7401 51.5598L19.4284 51.2083C19.1822 50.9306 18.8464 50.7368 18.4828 50.6623L18.0226 50.5681ZM22.3339 54.3147C22.3285 54.3241 22.312 54.3528 22.2684 54.3572C22.2245 54.363 22.2029 54.3369 22.1956 54.3288L20.8876 52.8537L24.9123 45.8825C25.4389 46.2927 26.039 46.5912 26.6837 46.7636L22.3339 54.3147ZM33.8094 54.3287C33.8022 54.3369 33.7798 54.362 33.7367 54.3571C33.6931 54.3527 33.6765 54.324 33.6715 54.3154L29.3186 46.7588C29.9603 46.5839 30.5633 46.2842 31.0901 45.8777L35.1176 52.8536L33.8094 54.3287ZM37.5221 50.6622C37.1583 50.7367 36.8223 50.9307 36.5766 51.2081L36.2647 51.5597L32.2857 44.6677C32.5582 44.4557 32.909 44.3587 33.2598 44.4092C33.6589 44.4665 34.0562 44.4767 34.4455 44.442L37.9823 50.5679L37.5221 50.6622ZM41.6691 49.7773C41.6511 49.8173 41.6187 49.824 41.6081 49.8261L39.6765 50.2214L36.0873 44.0047C36.6224 43.7581 37.1177 43.4155 37.5505 42.9827C37.6015 42.9318 37.6497 42.879 37.6981 42.8263L41.6652 49.6992C41.6707 49.7086 41.6871 49.7373 41.6691 49.7773ZM53.6359 40.703C53.6356 40.7049 53.6352 40.707 53.6347 40.7091C53.5314 41.2151 53.0658 41.5527 52.5492 41.4955L38.9884 40.0607C39.0449 39.6131 39.0434 39.1539 38.977 38.692C38.9098 38.2254 39.1026 37.76 39.4802 37.4774C40.7673 36.5141 41.5055 35.0406 41.5055 33.4347C41.5055 31.829 40.7674 30.3556 39.4802 29.392C39.1027 29.1095 38.9098 28.644 38.977 28.1773C39.0435 27.7152 39.0449 27.2556 38.9883 26.8079L52.5537 25.3744C53.0671 25.3172 53.5338 25.6573 53.6355 26.1654C54.6005 30.9886 54.6006 35.8797 53.6359 40.703Z" fill="#980517"/>
<path d="M12.6016 17.9484H14.4135C15.3653 17.9484 16.1397 17.1739 16.1397 16.2221V14.3847C16.1397 13.6685 15.8424 12.9743 15.3242 12.4799C15.0349 12.2041 14.6954 12.0032 14.3279 11.8832V10.0506L19.0289 12.14V15.3782C19.0289 16.7954 20.1819 17.9484 21.5991 17.9484H34.4063C35.8235 17.9484 36.9764 16.7954 36.9764 15.3782V12.14L42.7802 9.5605C43.4125 9.27953 43.8054 8.67504 43.8054 7.98306C43.8054 7.29108 43.4125 6.68659 42.7802 6.40562L28.7037 0.149569C28.2582 -0.0484995 27.747 -0.0486089 27.3016 0.149569L19.3049 3.70365C18.891 3.88771 18.7045 4.37233 18.8885 4.7863C19.0725 5.20037 19.5575 5.38695 19.9711 5.20278L27.9679 1.6487C27.99 1.63886 28.0152 1.63886 28.0373 1.6487L42.1138 7.90486C42.1316 7.91274 42.1647 7.9275 42.1647 7.98317C42.1647 8.03884 42.1316 8.0536 42.1138 8.06148L36.9763 10.3448V8.94355C36.9763 8.00876 36.2159 7.24832 35.2811 7.24832H20.724C19.7892 7.24832 19.0288 8.00876 19.0288 8.94355V10.3448L13.8917 8.06159C13.8915 8.06148 13.8911 8.06137 13.8909 8.06115C13.873 8.05317 13.8406 8.03829 13.8406 7.98317C13.8406 7.9275 13.8737 7.91274 13.8915 7.90486L16.6901 6.661C17.1041 6.47693 17.2906 5.99231 17.1066 5.57835C16.9226 5.1645 16.438 4.97791 16.024 5.16187L13.2253 6.40573C12.5929 6.6867 12.2002 7.29119 12.2002 7.98317C12.2002 8.44865 12.3786 8.8741 12.6874 9.18853V11.8847C11.6302 12.2352 10.8755 13.2463 10.8755 14.4359V16.2221C10.8754 17.1739 11.6497 17.9484 12.6016 17.9484ZM34.4063 16.3078H21.5991C21.0865 16.3078 20.6694 15.8907 20.6694 15.3782V14.3245H35.3359V15.3782C35.3359 15.8907 34.9189 16.3078 34.4063 16.3078ZM20.7241 8.88886H35.2812C35.3113 8.88886 35.3359 8.91347 35.3359 8.94355V11.6195V11.6233V12.684H20.6694V8.94355C20.6694 8.91336 20.6939 8.88886 20.7241 8.88886ZM12.5159 14.4359C12.5159 13.9215 12.8859 13.4797 13.3591 13.4045C13.4073 13.4134 13.4567 13.4186 13.5076 13.4186C13.5577 13.4186 13.6063 13.4134 13.6539 13.4048C13.8552 13.4344 14.0416 13.5236 14.1918 13.6669C14.39 13.856 14.4991 14.1109 14.4991 14.3846V16.222C14.4991 16.2693 14.4606 16.3077 14.4135 16.3077H12.6016C12.5543 16.3077 12.5159 16.2692 12.5159 16.222V14.4359Z" fill="#980517"/>
</g>
<defs>
<clipPath id="clip0_47419_377">
<rect width="56" height="56" fill="white"/>
</clipPath>
</defs>
</svg>
