<svg width="56" height="56" viewBox="0 0 56 56" fill="none" xmlns="http://www.w3.org/2000/svg">
<g id="icon">
<g id="Group">
<g id="Group_2">
<path id="Vector" d="M17.1394 18.1574C17.1394 18.4968 17.394 18.8361 17.7334 18.921L22.9091 20.4483L22.994 23.6725C22.0606 27.2362 24.4364 31.9028 28 31.9028C31.5637 31.9028 33.9394 27.4058 33.0061 23.7574L33.1758 20.4483L34.9576 19.8543V21.2119C34.9576 21.721 35.297 22.0604 35.8061 22.0604C36.3152 22.0604 36.6546 21.721 36.6546 21.2119V19.3452L38.097 18.921C38.4364 18.8361 38.6909 18.4968 38.6909 18.1574C38.6909 17.818 38.5212 17.4786 38.1818 17.3089L28.1697 12.9816C27.9152 12.8968 27.7455 12.8968 27.4909 12.9816L17.4788 17.3089C17.3091 17.4786 17.0546 17.818 17.1394 18.1574ZM28 19.5149C28.8485 19.5149 30.8 19.6846 31.4788 20.1089L31.394 22.2301C29.5273 21.721 26.5576 21.6362 24.6061 22.2301L24.5212 20.024C25.2849 19.5998 27.1515 19.5149 28 19.5149ZM28 30.2907C25.9637 30.2907 23.8424 27.2362 24.6909 24.0968C26.1334 23.3331 30.0364 23.418 31.394 24.0968C32.2424 27.0665 30.1212 30.2907 28 30.2907ZM27.9152 14.7634L35.4667 18.0725L32.7515 18.921C31.7334 17.9877 29.3576 17.818 28 17.818C26.6424 17.818 24.2667 17.9877 23.2485 18.921L20.3637 18.0725L27.9152 14.7634Z" fill="#980517"/>
</g>
<g id="Group_3">
<path id="Vector_2" d="M37.164 13.2366L41.1519 14.4245L41.2368 16.8851C41.0671 17.3942 41.0671 17.9881 41.0671 18.2426C41.0671 20.7881 42.8489 23.5881 45.3943 23.5881C47.9398 23.5881 49.7216 20.7881 49.7216 18.2426C49.7216 17.7335 49.6368 17.3093 49.5519 16.9699L49.6368 14.4245L50.7398 14.0851V14.9335C50.7398 15.4426 51.0792 15.782 51.5883 15.782C52.0974 15.782 52.4368 15.4426 52.4368 14.9335V13.576L53.4549 13.2366C53.7943 13.1517 54.0489 12.8123 54.0489 12.4729C54.0489 12.1335 53.8792 11.7942 53.5398 11.6245L45.564 8.14567C45.3095 8.06082 45.1398 8.06082 44.8852 8.14567L36.9095 11.6245C36.5701 11.7942 36.4004 12.1335 36.4004 12.4729C36.5701 12.8123 36.8246 13.1517 37.164 13.2366ZM45.4792 13.6608C46.2428 13.6608 47.5155 13.7457 48.1095 14.0851L48.0246 15.5275C46.5822 15.1032 44.3761 15.1032 42.9337 15.5275L42.8489 14.0851C43.4428 13.7457 44.7155 13.6608 45.4792 13.6608ZM45.4792 21.976C44.1216 21.976 42.8489 20.1942 42.8489 18.3275C42.8489 18.0729 42.9337 17.5638 43.0186 17.3093C44.1216 16.8002 47.0913 16.8851 48.1095 17.3093C48.1943 17.5638 48.2792 17.9881 48.2792 18.3275C48.1095 20.1093 46.8368 21.976 45.4792 21.976ZM45.3943 9.92749L50.9095 12.3032L49.2974 12.8123C48.4489 12.1335 46.5822 11.9638 45.4792 11.9638C44.3761 11.9638 42.5095 12.1335 41.661 12.8123L39.8792 12.3032L45.3943 9.92749Z" fill="#980517"/>
</g>
<g id="Group_4">
<path id="Vector_3" d="M55.1517 35.1274C54.3032 23.2486 55.2365 36.7395 54.5577 26.4728C54.388 25.5395 54.2183 24.1819 52.6062 23.7577C51.2486 23.3334 50.9941 23.0789 49.382 22.9092C49.1274 22.9092 48.788 22.994 48.6183 23.2486C48.4486 23.5031 48.3638 23.7577 48.4486 24.0122C48.6183 24.6061 48.7032 25.2001 48.788 25.794C48.8729 27.9152 47.4305 29.6971 45.4789 31.5637C42.6789 28.7637 41.7456 26.3031 42.4244 23.9274C42.5092 23.6728 42.4244 23.3334 42.2547 23.1637C42.085 22.994 41.8305 22.9092 41.5759 22.9092C39.8789 23.0789 39.6244 23.4183 38.2668 23.7577C36.7395 24.1819 36.5698 25.5395 36.4002 26.4728C36.0608 31.1395 36.7395 20.9577 35.9759 32.2425C35.1274 31.988 33.8547 31.5637 32.8365 31.4789C32.582 31.4789 32.2426 31.5637 32.0729 31.8183C31.9032 32.0728 31.8183 32.3274 31.9032 32.5819C33.1759 36.7395 31.3941 39.1152 27.9153 42.4243C24.2668 38.7758 22.9941 35.6365 23.9274 32.5819C24.0123 32.3274 23.9274 31.988 23.7577 31.8183C23.588 31.5637 23.3335 31.4789 22.9941 31.4789C21.8911 31.5637 20.7032 31.9031 19.8547 32.2425C19.7698 31.1395 19.685 30.291 19.685 29.4425C19.6001 25.4546 19.5153 24.2668 17.7335 23.7577C16.3759 23.3334 16.1214 23.0789 14.5092 22.9092C14.2547 22.9092 13.9153 22.994 13.7456 23.2486C13.5759 23.4183 13.4911 23.7577 13.5759 24.0122C14.5092 27.2365 13.2365 29.0183 10.5214 31.6486C7.72136 28.7637 6.78803 26.388 7.46681 24.0122C7.55166 23.7577 7.46682 23.4183 7.29712 23.2486C7.21227 22.994 6.95772 22.9092 6.61833 22.9092C4.92136 23.0789 4.66681 23.3334 3.30924 23.7577C1.52742 24.2668 1.44257 25.2001 1.18803 30.3758C1.10318 31.7334 1.01833 33.3455 0.848633 35.4668C0.848633 35.7213 0.933481 35.891 1.10318 36.1455C1.27288 36.3152 1.52742 36.4001 1.69712 36.4001H5.17591H16.7153C16.6305 37.6728 16.6305 37.7577 16.0365 47.0062C16.0365 47.2607 16.1214 47.4304 16.2911 47.6849C16.4608 47.8546 16.7153 47.9395 16.885 47.9395H38.9456C39.2002 47.9395 39.3698 47.8546 39.5395 47.6849C39.7092 47.5152 39.7941 47.2607 39.7941 47.0062C39.1153 37.3334 39.2001 38.2668 39.1153 36.4001H54.0486C54.388 36.4001 54.8123 36.3152 54.982 36.0607C55.2365 35.6365 55.1517 35.3819 55.1517 35.1274ZM2.885 30.5455C3.22439 25.6243 3.22439 25.6243 3.81833 25.4546C4.49712 25.2849 5.26075 24.9455 5.60015 24.8607C5.26075 27.5758 6.70318 30.3758 9.92742 33.5152C10.2668 33.8546 10.7759 33.8546 11.1153 33.5152C13.8305 30.8849 16.0365 28.594 15.5274 24.9455C15.8668 25.0304 16.5456 25.2849 17.3092 25.5395C17.9032 25.7092 17.988 25.8789 18.1577 29.6122C18.2426 30.5455 18.2426 31.6486 18.4123 32.9213C17.5638 33.4304 17.3092 34.1092 17.1395 34.788H16.8001V32.5819C16.8001 32.0728 16.4608 31.7334 15.9517 31.7334C15.4426 31.7334 15.1032 32.0728 15.1032 32.5819V34.788H6.10924V32.5819C6.10924 32.0728 5.76984 31.7334 5.26075 31.7334C4.75166 31.7334 4.41227 32.0728 4.41227 32.5819V34.788H2.63045C2.7153 33.0061 2.80015 31.6486 2.885 30.5455ZM35.4668 46.1577V43.2728C35.4668 42.7637 35.1274 42.4243 34.6183 42.4243C34.1092 42.4243 33.7698 42.7637 33.7698 43.2728V46.1577H22.2305V43.2728C22.2305 42.7637 21.8911 42.4243 21.382 42.4243C20.8729 42.4243 20.5335 42.7637 20.5335 43.2728V46.1577H17.9032C18.3274 39.7092 18.4971 36.994 18.6668 35.6365C18.8365 34.6183 19.0062 34.2789 19.6001 34.1092C19.685 34.1092 20.788 33.6001 22.2305 33.2607C21.7214 36.7395 23.4183 40.2183 27.4911 44.1213C27.8305 44.4607 28.3395 44.4607 28.6789 44.1213C32.1577 40.8122 34.8729 37.9274 34.0244 33.2607C35.2123 33.5152 36.3153 33.9395 36.485 34.0243C36.9941 34.2789 37.2486 34.1092 37.5032 35.5516C37.588 36.2304 37.5032 34.8728 38.2668 46.0728H35.4668V46.1577ZM51.588 34.7031V32.4971C51.588 31.988 51.2486 31.6486 50.7395 31.6486C50.2305 31.6486 49.8911 31.988 49.8911 32.4971V34.7031H40.982V32.4971C40.982 31.988 40.6426 31.6486 40.1335 31.6486C39.6244 31.6486 39.285 31.988 39.285 32.4971V34.7031H38.9456C38.6911 33.8546 38.2668 33.1758 37.6729 32.8365C37.9274 29.6122 38.0123 28.1698 38.0971 26.6425C38.2668 25.6243 38.3517 25.4546 38.7759 25.3698C39.4547 25.2001 40.1335 24.8607 40.5577 24.7758C40.2183 27.491 41.6608 30.291 44.885 33.4304C45.2244 33.7698 45.7335 33.7698 46.0729 33.4304C48.6183 30.9698 50.7395 28.7637 50.5698 25.7092C50.5698 25.4546 50.485 25.1152 50.485 24.7758C50.8244 24.8607 51.5032 25.1152 52.2668 25.3698C52.6911 25.4546 52.7759 25.6243 52.9456 26.7274C53.5395 35.6365 53.4547 34.4486 53.4547 34.7031H51.588Z" fill="#980517"/>
</g>
<g id="Group_5">
<path id="Vector_4" d="M2.20613 13.2366L6.27886 14.4245L6.36371 16.8851C5.60007 19.8548 7.55159 23.6729 10.5213 23.6729C13.4061 23.6729 15.4425 20.0245 14.6789 16.9699L14.7637 14.4245L15.8667 14.0851V14.9335C15.8667 15.4426 16.2061 15.782 16.7152 15.782C17.2243 15.782 17.5637 15.4426 17.5637 14.9335V13.576L18.5819 13.2366C18.9213 13.1517 19.1758 12.8123 19.1758 12.4729C19.1758 12.1335 19.0061 11.7942 18.6667 11.6245L10.691 8.14567C10.4364 8.06082 10.2667 8.06082 10.0122 8.14567L2.03643 11.6245C1.69704 11.7942 1.52734 12.1335 1.52734 12.4729C1.69704 12.8123 1.86674 13.1517 2.20613 13.2366ZM10.5213 13.6608C11.2849 13.6608 12.5576 13.7457 13.1516 14.0851L13.0667 15.5275C11.6243 15.1032 9.41825 15.1032 7.97583 15.5275L7.89098 14.0851C8.56977 13.7457 9.8425 13.6608 10.5213 13.6608ZM10.5213 21.976C9.07886 21.976 7.46674 19.8548 7.97583 17.3093C9.07886 16.8002 12.0486 16.8851 13.0667 17.3093C13.7455 19.6002 12.0486 21.976 10.5213 21.976ZM10.4364 9.92749L15.9516 12.3032L14.3395 12.8123C13.491 12.1335 11.6243 11.9638 10.5213 11.9638C9.41825 11.9638 7.55159 12.1335 6.7031 12.8123L4.92128 12.3032L10.4364 9.92749Z" fill="#980517"/>
</g>
</g>
</g>
</svg>
